<svg width="29" height="45" viewBox="0 0 29 45" fill="none" xmlns="http://www.w3.org/2000/svg">
<path d="M14.5001 30.5132V0C3.40436 1.10957 0.714493 11.8102 0.756531 17.0218L0 17.5262L1.1348 21.9393C2.84959 28.4959 1.84929 34.0017 1.1348 35.9351L10.7174 44.0047V25.4697L4.53916 21.9393V17.5262L12.6088 21.561V25.4697L12.2305 28.2437L14.5001 30.5132Z" fill="#2CC185"/>
<path d="M14.5 30.5132V0C25.5957 1.10957 28.2856 11.8102 28.2436 17.0218L29.0001 17.5262L27.8653 21.9393C26.1505 28.4959 27.1508 34.0017 27.8653 35.9351L18.2827 44.0047V25.4697L24.461 21.9393V17.5262L16.3913 21.561V25.4697L16.7696 28.2437L14.5 30.5132Z" fill="#4BF7AC"/>
</svg>
