<svg width="80" height="76" viewBox="0 0 80 76" fill="none" xmlns="http://www.w3.org/2000/svg">
<path d="M20.5798 6.18733C32.2824 -3.49683 52.1437 -0.361971 63.799 7.64527C76.0277 16.0446 81.5727 31.0182 78.2636 45.4212C74.5242 61.7011 60.0097 70.6314 44.4409 73.8396C35.8599 75.6075 26.5653 75.1447 19.1377 70.0749C12.5135 65.5535 8.28438 58.3857 4.98203 51.255C0.786654 42.1974 -1.10397 33.5097 3.10827 24.0128C6.18533 17.0748 11.6056 11.243 18.157 7.43777C32.7167 -1.01885 53.7847 1.01445 65.6053 13.4077C71.9334 20.0425 74.4372 29.3339 75.0881 38.2601C75.7106 46.8077 74.0642 55.1242 68.4483 61.8062C58.7092 73.3936 42.2103 76.8573 28.5214 70.6361C14.45 64.2404 4.69469 49.6455 4.3217 34.1942C3.90756 17.0067 16.5902 2.96221 33.8189 1.75219C49.4632 0.652669 63.942 11.4801 69.4419 25.7854C75.1474 40.6249 71.0984 59.2204 57.8297 68.6796C44.8935 77.9009 27.1987 76.8404 16.1032 65.2988C5.66868 54.443 -1.65165 33.5245 6.48617 19.5985C15.2756 4.55894 37.0086 0.0173388 52.5544 5.35865C60.6444 8.13845 67.9634 13.4157 72.9425 20.3915C78.8154 28.6184 78.9422 37.8902 76.549 47.4026C72.5135 63.44 58.8394 75.8548 41.8441 75.9552C34.1689 76.001 26.5242 73.3896 20.3539 68.8588C13.2109 63.6138 8.83678 55.9697 6.27773 47.6121C3.67282 39.1043 2.43106 29.2766 6.90501 21.1535C11.1105 13.5188 19.4021 7.81236 27.4597 4.88098C43.0258 -0.780351 62.0183 4.41341 69.224 20.2049C72.7826 28.0026 73.0733 36.8743 73.0592 45.3013C73.0585 45.6415 73.5839 45.6415 73.5887 45.3013C73.708 36.2006 73.358 26.6377 69.0527 18.3912C65.3503 11.2996 58.7733 6.15703 51.2256 3.6474C42.6966 0.812359 33.4189 1.64845 25.2096 5.14038C17.5176 8.41267 9.6347 14.1825 5.86897 21.8374C1.89685 29.914 3.14467 39.4708 5.68213 47.7759C8.17845 55.9475 12.3853 63.4979 19.2308 68.7975C32.422 79.0092 50.8648 79.0186 63.9892 68.7038C77.6963 57.9323 84.123 34.8848 73.5171 20.0553C63.2627 5.71844 44.451 -0.622011 27.5561 4.13922C19.4345 6.42787 11.2022 11.2046 6.51581 18.4007C1.49821 26.1068 1.96497 35.8772 4.21644 44.4308C8.16293 59.4246 18.9569 74.0546 35.4882 75.4896C51.8522 76.9105 66.7101 65.9908 71.1227 50.4007C75.6121 34.5392 69.5511 17.2311 56.1022 7.67292C43.0028 -1.63799 24.5559 -0.976392 12.846 10.4056C0.400124 22.503 1.69111 42.7478 10.8893 56.3376C19.541 69.1209 35.3189 77.3087 50.7879 73.4415C58.0752 71.6197 64.8384 67.4103 69.4991 61.5031C74.7879 54.8001 76.3251 46.6373 75.714 38.2601C75.0759 29.5205 72.7077 20.4266 66.7566 13.7385C60.9721 7.2377 52.3844 3.44394 43.8763 2.20496C26.7858 -0.283791 8.95546 8.3379 2.24554 24.6508C-1.32998 33.3439 -0.0450566 41.2953 3.63568 49.6812C6.96838 57.2754 11.1914 64.9997 18.0032 70.0264C32.1818 80.4907 54.7404 74.5451 67.4696 64.3118C79.3893 54.7287 82.84 37.1909 77.2856 23.2515C71.636 9.0736 56.8509 0.468089 41.9277 -0.072921C34.5527 -0.341061 26.1606 1.10947 20.4125 6.0196C20.2951 6.11931 20.4638 6.2837 20.5798 6.18736" fill="#5762D5"/>
</svg>
