<svg width="24" height="45" viewBox="0 0 24 45" fill="none" xmlns="http://www.w3.org/2000/svg">
<path fill-rule="evenodd" clip-rule="evenodd" d="M23.1172 18.4967H19.3089C18.8225 18.4967 18.4276 18.8915 18.4276 19.3779V35.3716C18.4276 35.9434 17.964 36.407 17.3917 36.407H6.60832C6.03599 36.407 5.57236 35.9434 5.57236 35.3716V19.3779C5.57236 18.8915 5.17749 18.4967 4.69056 18.4967H0.882774C0.179561 18.4967 -0.240265 17.713 0.148504 17.1274L11.2657 0.393892C11.6146 -0.131297 12.3854 -0.131297 12.7343 0.393892L23.8515 17.1274C24.2403 17.713 23.8204 18.4967 23.1172 18.4967ZM17.5715 37.8347H6.42881C5.95575 37.8347 5.57253 38.2179 5.57253 38.6909V40.404C5.57253 40.8771 5.95574 41.2603 6.42881 41.2603H17.5715C18.0446 41.2603 18.4278 40.8771 18.4278 40.404V38.6909C18.4278 38.2179 18.0446 37.8347 17.5715 37.8347ZM17.5715 42.688H6.42881C5.95575 42.688 5.57253 43.0712 5.57253 43.5442C5.57253 44.0173 5.95574 44.4005 6.42881 44.4005H17.5715C18.0446 44.4005 18.4278 44.0173 18.4278 43.5442C18.4278 43.0712 18.0446 42.688 17.5715 42.688Z" fill="#FD4A4A"/>
<path fill-rule="evenodd" clip-rule="evenodd" d="M6.42881 37.8344H12.0002V41.2601H6.42881C5.95575 41.2601 5.57253 40.8768 5.57253 40.4038V38.6907C5.57253 38.2176 5.95574 37.8344 6.42881 37.8344ZM0.882774 18.4966H4.69056C5.17748 18.4966 5.57236 18.8909 5.57236 19.3778V35.3709C5.57236 35.9433 6.03599 36.4069 6.60832 36.4069H12V0C11.7199 0 11.4399 0.130883 11.2657 0.393199L0.148504 17.1273C-0.240265 17.7129 0.179561 18.4965 0.882774 18.4965V18.4966ZM12.0002 42.6877H6.42881C5.95575 42.6877 5.57253 43.0709 5.57253 43.544C5.57253 44.017 5.95574 44.4003 6.42881 44.4003H12.0002V42.6877Z" fill="#FD6666"/>
</svg>
