<svg width="24" height="24" viewBox="0 0 24 24" fill="none" xmlns="http://www.w3.org/2000/svg">
<mask id="mask0_54928_71541" style="mask-type:alpha" maskUnits="userSpaceOnUse" x="0" y="0" width="24" height="24">
<rect width="24" height="24" fill="white"/>
</mask>
<g mask="url(#mask0_54928_71541)">
<path d="M21.9558 16.401H21.9474L20.5891 9.21157C20.5891 9.20306 20.5891 9.20306 20.5807 9.19455C20.3719 8.01827 19.7654 6.9541 18.8669 6.18757C17.9683 5.42104 16.8348 5.00076 15.6639 5L8.33037 5.02552C7.15399 5.02368 6.01476 5.44606 5.11366 6.21816C4.21257 6.99025 3.60751 8.06245 3.40523 9.2456V9.26262L2.04685 16.3925C1.97735 16.7887 1.98524 17.195 2.07006 17.5881C2.15488 17.9812 2.31496 18.3533 2.54109 18.683C2.76722 19.0127 3.05496 19.2935 3.38775 19.5093C3.72054 19.7251 4.09182 19.8716 4.48026 19.9404C4.65043 19.9747 4.82349 19.9918 4.99694 19.9915C5.79264 19.9898 6.55583 19.6689 7.122 19.0981L7.15534 19.0556L10.5471 15.2269L13.4555 15.2099L16.839 19.0641L16.8806 19.1066C17.4427 19.6785 18.2038 19.9997 18.9974 20C19.1735 19.9999 19.3493 19.9828 19.5224 19.949C20.3048 19.8058 20.9999 19.3522 21.4559 18.6874C21.9118 18.0227 22.0916 17.2007 21.9558 16.401ZM9.99709 10.8111H9.3304V11.4918C9.3304 11.6723 9.26016 11.8454 9.13513 11.9731C9.0101 12.1007 8.84053 12.1724 8.66371 12.1724C8.4869 12.1724 8.31732 12.1007 8.1923 11.9731C8.06727 11.8454 7.99703 11.6723 7.99703 11.4918V10.8111H7.33034C7.15353 10.8111 6.98395 10.7394 6.85892 10.6118C6.7339 10.4841 6.66366 10.311 6.66366 10.1305C6.66366 9.94994 6.7339 9.77681 6.85892 9.64916C6.98395 9.52151 7.15353 9.4498 7.33034 9.4498H7.99703V8.76914C7.99703 8.58862 8.06727 8.41549 8.1923 8.28785C8.31732 8.1602 8.4869 8.08849 8.66371 8.08849C8.84053 8.08849 9.0101 8.1602 9.13513 8.28785C9.26016 8.41549 9.3304 8.58862 9.3304 8.76914V9.4498H9.99709C10.1739 9.4498 10.3435 9.52151 10.4685 9.64916C10.5935 9.77681 10.6638 9.94994 10.6638 10.1305C10.6638 10.311 10.5935 10.4841 10.4685 10.6118C10.3435 10.7394 10.1739 10.8111 9.99709 10.8111ZM13.3305 10.1305C13.3305 9.94994 13.4008 9.77681 13.5258 9.64916C13.6508 9.52151 13.8204 9.4498 13.9972 9.4498H16.664C16.8408 9.4498 17.0103 9.52151 17.1354 9.64916C17.2604 9.77681 17.3306 9.94994 17.3306 10.1305C17.3306 10.311 17.2604 10.4841 17.1354 10.6118C17.0103 10.7394 16.8408 10.8111 16.664 10.8111H13.9972C13.8204 10.8111 13.6508 10.7394 13.5258 10.6118C13.4008 10.4841 13.3305 10.311 13.3305 10.1305ZM19.289 18.6132C19.0277 18.66 18.7592 18.6427 18.5056 18.5629C18.2521 18.483 18.0207 18.3428 17.8307 18.1537L15.2389 15.2184H15.6639C16.5145 15.2192 17.3511 14.9985 18.0948 14.5772C18.8385 14.1559 19.4647 13.5478 19.914 12.8106L20.6391 16.6563C20.7118 17.0982 20.6108 17.5516 20.358 17.918C20.1052 18.2844 19.7211 18.5342 19.289 18.6132Z" fill="white"/>
</g>
</svg>
