<svg xmlns="http://www.w3.org/2000/svg" xmlns:xlink="http://www.w3.org/1999/xlink" width="70" height="70" viewBox="0 0 87 87">
    <defs>
        <linearGradient id="linear-gradient" x1="-3.013" x2="-2.013" y1="11.828" y2="11.828" gradientUnits="objectBoundingBox">
            <stop offset="0" stop-color="#fff" stop-opacity="0"/>
            <stop offset="1" stop-color="#fff"/>
        </linearGradient>
        <linearGradient id="linear-gradient-2" x1="-.051" x2=".947" y1="2.264" y2="2.264" xlink:href="#linear-gradient"/>
        <linearGradient id="linear-gradient-3" x1="-3.034" x2="-2.034" y1="11.046" y2="11.046" xlink:href="#linear-gradient"/>
        <linearGradient id="linear-gradient-4" x1="-3.102" x2="-2.102" y1="12.548" y2="12.548" xlink:href="#linear-gradient"/>
        <linearGradient id="linear-gradient-5" x1="5.694" x2="7.569" y1="27.407" y2="27.407" xlink:href="#linear-gradient"/>
        <radialGradient id="radial-gradient" cx=".5" cy=".5" r=".794" gradientTransform="matrix(.63 0 0 .63 -.376 .236)" gradientUnits="objectBoundingBox">
            <stop offset="0" stop-color="#fff"/>
            <stop offset=".041" stop-color="#fff" stop-opacity=".91"/>
            <stop offset=".148" stop-color="#fff" stop-opacity=".698"/>
            <stop offset=".259" stop-color="#fff" stop-opacity=".514"/>
            <stop offset=".372" stop-color="#fff" stop-opacity=".353"/>
            <stop offset=".487" stop-color="#fff" stop-opacity=".227"/>
            <stop offset=".604" stop-color="#fff" stop-opacity=".125"/>
            <stop offset=".726" stop-color="#fff" stop-opacity=".055"/>
            <stop offset=".854" stop-color="#fff" stop-opacity=".012"/>
            <stop offset="1" stop-color="#fff" stop-opacity="0"/>
        </radialGradient>
        <radialGradient id="radial-gradient-2" cx=".5" cy=".5" r=".5" gradientTransform="rotate(90 -3.14 -2.26)" xlink:href="#radial-gradient"/>
        <style>
            .cls-20,.cls-36,.cls-38,.cls-40,.cls-5{mix-blend-mode:screen}.cls-12,.cls-14,.cls-20,.cls-28,.cls-29,.cls-32,.cls-36,.cls-37,.cls-38,.cls-40,.cls-5,.cls-9{isolation:isolate}.cls-3{fill:#fff}.cls-4,.cls-5{fill:#ffd986}.cls-6{fill:#facc92}.cls-7{fill:#fab464}.cls-8,.cls-9{fill:#792b27}.cls-32,.cls-9{opacity:.1}.cls-12,.cls-14,.cls-28,.cls-29,.cls-32,.cls-37,.cls-9{mix-blend-mode:multiply}.cls-10{fill:#6a2124}.cls-11,.cls-12,.cls-28,.cls-38{fill:#e7953d}.cls-12,.cls-14{opacity:.15}.cls-13,.cls-29{fill:#b16230}.cls-15{fill:#953b16}.cls-17{fill:#ffb11f}.cls-18{fill:#ffcd1b}.cls-19{fill:#ffea40}.cls-20{fill:#fff762}.cls-20,.cls-28{opacity:.5}.cls-29{opacity:.2}.cls-30{fill:#e7a95f}.cls-31{fill:#c8743e}.cls-35,.cls-36,.cls-37{fill:#ffbc53}.cls-36,.cls-38,.cls-40{opacity:.4}.cls-39,.cls-40{fill:#e7a33d}
        </style>
    </defs>
    <g id="Treasure" transform="translate(-15476 -942)">
        <circle id="Ellipse_287" cx="43.5" cy="43.5" r="43.5" fill="#272733" opacity="0.65" transform="translate(15476 942)"/>
        <g id="Group_1935" transform="translate(14651.749 875.572)">
            <g id="Group_1862" transform="translate(840.25 82.341)" style="isolation:isolate;mix-blend-mode:screen">
                <path id="Path_2457" d="M866.9 138.021a1.245 1.245 0 0 1-.433-.078l-4.952-1.837a1.235 1.235 0 0 1-.471-.314l-7.77-3.083a1.246 1.246 0 0 1-.765-.926l-3.832-20.217a7.206 7.206 0 0 1-.836-1.933l-.909-.584-4.765-3.061a1.245 1.245 0 0 1-.566-.92l-1.348-13a1.246 1.246 0 0 1 .284-.929l5.537-6.607a1.24 1.24 0 0 1 1.005-.445l11.921.481a3.941 3.941 0 0 1 3.594-2.227 3.81 3.81 0 0 1 3.67 2.522l10.918.444a1.245 1.245 0 0 1 1.186 1.092l1.561 12.67h.007a16.871 16.871 0 0 1 6.881 7.06 1.312 1.312 0 0 1 .675.312l7.566 2.4a1.245 1.245 0 0 1 .849 1.412l-3.946 21.495a1.245 1.245 0 0 1-.957.992l-23.837 5.249a1.249 1.249 0 0 1-.267.032zm-4.073-4.086l4.163 1.545 22.672-4.992 3.6-19.6-6.974-2.21H886.267l-.69-.219a1.246 1.246 0 0 1-.783-.731 13.907 13.907 0 0 0-6.1-6.488q-.253-.146-.508-.282a1.245 1.245 0 0 1-.649-.946l-1.51-12.249-10.791-.438a1.245 1.245 0 0 0-.788-.032l-3.65-.148a1.245 1.245 0 0 1-.459-.108 1.226 1.226 0 0 1-.467.07l-12.278-.5-4.805 5.733 1.232 11.885 5.6 3.6a1.245 1.245 0 0 1 .553.831 4.691 4.691 0 0 0 .724 1.768 1.246 1.246 0 0 1 .185.455l3.749 19.779 7.563 3a1.247 1.247 0 0 1 .434.277zm23.747-25.324h.014-.027z" class="cls-3" transform="translate(-840.25 -82.341)"/>
            </g>
            <g id="Group_1934" transform="translate(841.496 83.585)">
                <g id="Group_1868">
                    <g id="Group_1864" transform="translate(18.407)">
                        <g id="Group_1863">
                            <path id="Path_2458" d="M966.471 93.01c-.137-3.2 5.132-3.971 5.413.081l-.779-.009a2.362 2.362 0 0 0-1.045-1.813 1.9 1.9 0 0 0-2.69 1.761z" class="cls-4" transform="translate(-966.468 -90.326)"/>
                        </g>
                        <path id="Path_2459" d="M981.811 91.774a2.162 2.162 0 0 1 2.62 2.314 2.663 2.663 0 0 0-2.62-2.314z" class="cls-5" transform="translate(-979.422 -91.515)"/>
                    </g>
                    <g id="Group_1867" transform="translate(0 1.744)">
                        <path id="Path_2460" d="M916.213 121.393l-29.93 4.021-2.47-23.89 30.1 1.223z" class="cls-6" transform="translate(-878.275 -101.524)"/>
                        <path id="Path_2461" d="M929.606 128.025l-29.93 4.021 1.638-1.32 25.994-21.346z" class="cls-7" transform="translate(-891.669 -108.157)"/>
                        <path id="Path_2462" d="M924.268 127.023l-26.833 3.6-2.353-21.365 27.171.933z" class="cls-8" transform="translate(-887.79 -108.054)"/>
                        <path id="Path_2463" d="M934.828 212.516L908 216.117l-.406-3.683 21.826-1.916z" class="cls-9" transform="translate(-898.35 -193.548)"/>
                        <path id="Path_2464" d="M917.337 113.461l-21.7.3-.559-4.5 27.171.933z" class="cls-9" transform="translate(-887.79 -108.054)"/>
                        <path id="Path_2465" d="M1044.943 132.08l-5.412-2-1.518-11.565 4.916-3.269z" class="cls-10" transform="translate(-1008.465 -113.111)"/>
                        <path id="Path_2466" d="M856.257 125.414l-6.66-4.278-1.348-13.005 5.537-6.607z" class="cls-11" transform="translate(-848.25 -101.524)"/>
                        <g id="Group_1865" transform="translate(.045)">
                            <path id="Path_2467" d="M891.833 206.063a7.4 7.4 0 0 0 .451.833l-.233-2.254-.008-.006c-.83-.836-.302 1.223-.21 1.427z" class="cls-12" transform="translate(-884.88 -188.413)"/>
                            <path id="Path_2468" d="M850.687 167.471c.048-.325.094-.65.133-.976a5.1 5.1 0 0 0-.509-2.652z" class="cls-12" transform="translate(-850.035 -154.14)"/>
                            <path id="Path_2469" d="M854.36 133.667a17.414 17.414 0 0 0 .2-2.244l-.773.922a.154.154 0 0 1 .011.032 3.123 3.123 0 0 0 .562 1.29z" class="cls-12" transform="translate(-852.972 -126.768)"/>
                            <path id="Path_2470" d="M854.857 203.286a4.533 4.533 0 0 0-.5-.449l.043.417c.089-.053.192-.063.249.018a.926.926 0 0 1-.118 1.249l.036.344a.192.192 0 0 1 .086-.008c.884.129.547-1.196.204-1.571z" class="cls-12" transform="translate(-853.447 -187.062)"/>
                            <path id="Path_2471" d="M853.835 131.859a1.426 1.426 0 0 1 .935.234 6.1 6.1 0 0 1 1.513 1.248l-.037-.357a9.675 9.675 0 0 1-1.886-3.431c-.046-.252.355-.516.409-.19a7.216 7.216 0 0 0 1.394 2.815l-.123-1.195a7.822 7.822 0 0 1-1.182-2.4c-.164-.7.063-1.848.781-1.479l-.1-.943a.167.167 0 0 1-.021-.011 2 2 0 0 1-.742-1.117 26.429 26.429 0 0 1-.807 4.513c-.092.276-.414-.018-.38-.216.306-1.814.562-3.675.984-5.463.062-.262.36-.223.386.043a2.974 2.974 0 0 0 .5 1.5l-.156-1.505a.283.283 0 0 1-.02-.092 26.134 26.134 0 0 0-.91-4.264c.022.157.041.315.056.474.225 2.468-.779 4.847-.773 7.311 0 .291-.465.107-.468-.138-.033-2.493 1.044-4.892.807-7.386-.208-2.188-1.242-4.236-1.519-6.415l-.27.323a.162.162 0 0 1 .021.052 15.329 15.329 0 0 0 .6 2.808c.09.222-.227.466-.341.2a5.867 5.867 0 0 1-.319-1 8.115 8.115 0 0 0-.116 1.306c0 .219-.466.352-.468.074a25.937 25.937 0 0 0 .26-3.011l-.249.3a.161.161 0 0 1-.006.046c-.355 1.287-.3 2.667-.722 3.934-.095.284-.46.2-.374-.093a26.769 26.769 0 0 0 .5-3.172l-.4.472a20.386 20.386 0 0 1-.389 3.257c-.027.1-.2.348-.341.221a3.087 3.087 0 0 1-.91-1.521l-.178.213a4.353 4.353 0 0 0 1.394 2.58c.23.17.083.632-.177.41a5.094 5.094 0 0 1-1.468-2.207l.109 1.057a.135.135 0 0 1 .024.038 10.3 10.3 0 0 1 1.094 3.8 16.766 16.766 0 0 1-.389 3.192v.032a2.285 2.285 0 0 0 .449.457 2.2 2.2 0 0 1 .626.634c.439.789.357 2.122-.753 2.015l.029.282a8.843 8.843 0 0 1 1.425.909c.187.169-.143.547-.315.381a5.918 5.918 0 0 0-1.055-.761l.056.54 1.214.78a3.831 3.831 0 0 1 .663.029c.417.061.822.323 1.236.348.582.032.502-.352.899-.461zm-3.292-4.51c-1.786-1.621-.2-4.276-.276-6.182-.012-.325.4-.162.423.095.141 1.949-1.468 4.133.243 5.792.187.182-.222.446-.39.295zm1.785 4.21a1.323 1.323 0 0 1-.547-.444 2.41 2.41 0 0 1-.523-1.622c.024-.327.411-.119.41.132a1.942 1.942 0 0 0 .258 1 1.06 1.06 0 0 0 1.139.515c.257-.109.515.182.207.3a1.42 1.42 0 0 1-.944.119z" class="cls-12" transform="translate(-848.537 -111.549)"/>
                            <path id="Path_2472" d="M873.145 236.534a13.153 13.153 0 0 1 1.422 1.613l-.146-1.41a.216.216 0 0 1-.2-.05 8.819 8.819 0 0 0-1.383-1.276c-.249-.165-.62-.412-.918-.224-.137.087-.174.273-.341.352-.48.227-1.13-.2-1.6-.3l-.038-.007 1.2.769c.859-.027 1.282-.137 2.004.533z" class="cls-12" transform="translate(-866.611 -214.318)"/>
                            <path id="Path_2473" d="M883.064 244.084a2.115 2.115 0 0 0-1.234-.6l1.758 1.129a7.469 7.469 0 0 0-.524-.529z" class="cls-12" transform="translate(-876.646 -221.383)"/>
                            <path id="Path_2474" d="M887.339 137.276a8.558 8.558 0 0 0 .3 2.937z" class="cls-12" transform="translate(-881.271 -131.709)"/>
                            <path id="Path_2475" d="M877.812 112.4a.285.285 0 0 1 .386-.19l-.039-.373a13.388 13.388 0 0 0-.565-1.539 9.484 9.484 0 0 1-.78-2.321l-.293.35c.093 1.976.9 3.836 1.322 5.761a6.55 6.55 0 0 1-.031-1.688z" class="cls-12" transform="translate(-872.163 -106.975)"/>
                            <path id="Path_2476" d="M881.088 101.524l-.5.6a8.5 8.5 0 0 0 .845 2.715z" class="cls-12" transform="translate(-875.596 -101.524)"/>
                        </g>
                        <path id="Path_2477" d="M861.727 142.626l-3.886-2.521-1.166-11 3.228-3.5z" class="cls-13" transform="translate(-855.364 -121.857)"/>
                        <g id="Group_1866" class="cls-14" transform="translate(1.312 3.75)">
                            <path id="Path_2478" d="M869.886 132.02a7.327 7.327 0 0 0 .156 2.022 3.709 3.709 0 0 0 .309 1.123 8.662 8.662 0 0 0-.223-1.859 13.433 13.433 0 0 1-.042-1.729l-.335.364c.061-.036.149-.021.135.079z" class="cls-13" transform="translate(-867.715 -130.647)"/>
                            <path id="Path_2479" d="M875.946 125.607l-.269.292a11.268 11.268 0 0 0 .529 2.137z" class="cls-13" transform="translate(-872.718 -125.607)"/>
                            <path id="Path_2480" d="M877.176 151.987a6.963 6.963 0 0 1-.3-.956c.045.5.1.994.168 1.487a4.734 4.734 0 0 0 .655 1.88l.056.1-.134-1.252a.077.077 0 0 1-.01-.015 4.383 4.383 0 0 1-.434-1.2.11.11 0 0 1-.001-.044z" class="cls-13" transform="translate(-873.727 -147.072)"/>
                            <path id="Path_2481" d="M880.675 185.554l-.043-.4c-.208-.367-.464-.71-.7-1.066a12.5 12.5 0 0 0 .743 1.466z" class="cls-13" transform="translate(-876.314 -174.986)"/>
                            <path id="Path_2482" d="M883.15 211.328l-.215-2c-.235-.47-.527-.919-.783-1.382.298 1.133.675 2.249.998 3.382z" class="cls-13" transform="translate(-878.185 -195.123)"/>
                            <path id="Path_2483" d="M861.677 144.858a.108.108 0 0 1-.152-.063 46.562 46.562 0 0 1-1.361-4.771 3.228 3.228 0 0 1-.075-.326.071.071 0 0 1 0-.02c-.007-.1.192-.2.211-.093s.045.238.068.357a9.182 9.182 0 0 0 1.006 2.1l-.092-.86a8 8 0 0 0-.809-1.6 6.42 6.42 0 0 1-.349-.571 5.04 5.04 0 0 0-.479 1.374.094.094 0 1 1-.187 0v-.031a12.387 12.387 0 0 1-.027-1.968.12.12 0 0 1 0-.033 4.549 4.549 0 0 0 .054-1.89 18.424 18.424 0 0 1-.636-2.065c-.017-.107.209-.189.226-.072.115.824.5 1.581.666 2.393a3.73 3.73 0 0 1-.078 1.508.049.049 0 0 1 .011.04 8.053 8.053 0 0 0-.067 1.534 5.159 5.159 0 0 0 .408-1.054 1.233 1.233 0 0 1-.062-.57c.015-.109.133-.127.178-.021a1.031 1.031 0 0 1 .071.57 6.976 6.976 0 0 0 .695 1.166 6.678 6.678 0 0 1 .32.621l-.12-1.122a10.041 10.041 0 0 1-1.221-2.748c-.011-.027-.023-.053-.033-.08-.038-.1.149-.221.2-.126a.062.062 0 0 1 .037.056v.04a8.749 8.749 0 0 0 .873 1.527l-.087-.809a13.725 13.725 0 0 1-.94-1.5 4.792 4.792 0 0 1-.386-1.746 2.213 2.213 0 0 1-.088.33.083.083 0 0 1-.128.035 2.942 2.942 0 0 1-.6-1.39c-.025-.109.2-.2.219-.087a2.8 2.8 0 0 0 .4 1.165 2.678 2.678 0 0 1 .188-.659c.054-.1.171-.045.175.058a5.031 5.031 0 0 0 .622 2.6c.162.26.333.509.5.76l-.067-.625a7.293 7.293 0 0 1-.912-2.145 19.921 19.921 0 0 1-.275-3.95c0-.113.146-.115.179-.012a5.525 5.525 0 0 1 .121 1.246 6.24 6.24 0 0 0 .539 1.96.107.107 0 0 1-.042.12 2.766 2.766 0 0 0 .142.456l-.228-2.124a22.316 22.316 0 0 1-.828-2.927l-.208.226c.062.718-.04 1.421.08 2.142a5.428 5.428 0 0 1 .145 1.951c-.015.078-.1.153-.165.063a4.121 4.121 0 0 1-.549-1.787 6.216 6.216 0 0 1-.1-1.711.106.106 0 0 1 .01-.033l-1.236 1.341a5.592 5.592 0 0 1 .361 1.982 15.284 15.284 0 0 0 .227 2.061c0-.539.052-1.076.049-1.625a18.058 18.058 0 0 1-.291-2.479c.016-.119.22-.173.2-.023a10.656 10.656 0 0 0 .28 2.317 19.059 19.059 0 0 0 .023 2.771c.018.091-.123.236-.173.1a8.992 8.992 0 0 1-.476-2.681 6.211 6.211 0 0 0-.336-2.276l-.216.234a.1.1 0 0 1 .029.048 7.446 7.446 0 0 1 .064 1.648 8.963 8.963 0 0 0 .306 1.785 21.957 21.957 0 0 0 .764 2.206c.183.488.3.994.457 1.489a.053.053 0 0 1 .047.036 1.881 1.881 0 0 1 .051 1.237c-.02.071-.117.151-.169.051a13.8 13.8 0 0 1-.72-1.3c-.174-.442-.294-.9-.474-1.341-.042-.1.116-.272.165-.15.181.449.3.914.477 1.365a7.185 7.185 0 0 0 .593 1.085 1.58 1.58 0 0 0-.073-.712.075.075 0 0 1-.078-.047c-.214-.668-.368-1.341-.624-2a16.307 16.307 0 0 1-.513-1.583 11.656 11.656 0 0 1-.36-1.733c-.077-.644.057-1.3-.079-1.936l-.254.276 1.166 11 .273.178c.022-.467.09-.929.084-1.4a5.7 5.7 0 0 0-.588-1.887c-.039-.1.162-.232.2-.119a8.286 8.286 0 0 1 .543 1.6 10.339 10.339 0 0 1-.054 1.928l.469.3a7.565 7.565 0 0 0-1.227-4.736c-.071-.1.043-.287.128-.166a8.092 8.092 0 0 1 1.309 4.828c0 .058-.061.114-.118.134l.282.183c-.006-.162-.006-.325-.007-.5 0-.417-.085-.818-.12-1.233s-.07-.807-.1-1.209c-.033-.448.116-.874.079-1.322-.01-.122.226-.2.223-.06-.012.5-.14.98-.1 1.491.027.378.075.758.106 1.136.03.354.106.7.112 1.059 0 .258 0 .511.008.763l.631.41a9.083 9.083 0 0 1-.1-3.816.1.1 0 0 1 .16-.066c.058-.026.119-.019.11.06-.18 1.59.637 3.029.961 4.553l.625.405zm-2.524-6.055a23.5 23.5 0 0 1-.688-3.914 16.645 16.645 0 0 0-.214-2.176 11.672 11.672 0 0 1-.242-1.905c0-.106.24-.145.237-.028a10.917 10.917 0 0 0 .237 2.059 15.161 15.161 0 0 1 .158 1.818 13.766 13.766 0 0 0 .19 2.021c.135.689.35 1.364.5 2.051.022.129-.144.226-.178.071z" class="cls-13" transform="translate(-856.676 -128.316)"/>
                            <path id="Path_2484" d="M877.628 210.548l.634.412a19.1 19.1 0 0 1-.913-3.735 14.089 14.089 0 0 0 .279 3.323z" class="cls-13" transform="translate(-874.098 -194.517)"/>
                        </g>
                        <path id="Line_7" d="M0 3.233L2.978 0" class="cls-13" transform="translate(1.723 4.202)"/>
                        <path id="Path_2485" d="M861.663 142.025l-1.7-1.037-1.487-13.206 1.485-1.613-.06-.562-3.227 3.5 1.166 11 3.886 2.522zm-4.576-12.732l1.134-1.231 1.426 12.732-1.477-.9z" class="cls-15" transform="translate(-855.364 -121.857)"/>
                    </g>
                </g>
                <g id="Group_1869" transform="translate(8.007 21.612)">
                    <path id="Path_2486" d="M927.885 250.178l-23.976 5.3-4.233-22.333 29.93-4.021z" class="cls-8" transform="translate(-899.676 -229.127)"/>
                    <path id="Path_2487" d="M1093.871 255.456l-13.027-5.277 1.721-21.052 15.253 4.835z" class="cls-10" transform="translate(-1052.634 -229.127)"/>
                    <path id="Path_2488" d="M929.552 229.785l-26.59 3.591-3.286-.229 29.93-4.021z" class="cls-11" transform="translate(-899.676 -229.127)"/>
                    <path id="Path_2489" fill="#ffd1c2" d="M1106.856 233.961l-2.346-.227-12.961-3.949.054-.659z" transform="translate(-1061.674 -229.127)"/>
                </g>
                <g id="Group_1893" transform="translate(6.979 10.638)">
                    <g id="Group_1870" transform="translate(32.545 11.365)">
                        <path id="Path_2490" d="M1107.494 239.824a6.048 6.048 0 0 0-3.091-.341l-.229.477c-.338.706.572 1.846 2.033 2.547s2.92.7 3.259-.009l.229-.477a6.047 6.047 0 0 0-2.201-2.197z" class="cls-17" transform="translate(-1103.79 -238.206)"/>
                        <ellipse id="Ellipse_258" cx="1.417" cy="2.935" class="cls-18" rx="1.417" ry="2.935" transform="rotate(-64.378 2.03 1.278)"/>
                        <path id="Path_2491" d="M1110.69 238.35c1.276.612 2.071 1.608 1.776 2.224s-1.57.62-2.846.008-2.071-1.608-1.776-2.224 1.57-.62 2.846-.008z" class="cls-19" transform="translate(-1106.896 -236.919)"/>
                        <path id="Path_2492" d="M1112 240.028l-2.484-3.543a2.284 2.284 0 0 0-1.479.153l2.352 3.134a4.161 4.161 0 0 0 1.611.256z" class="cls-20" transform="translate(-1107.109 -235.689)"/>
                        <path id="Path_2493" d="M1122.37 240.636a1 1 0 0 0 .6-.374l-1.993-2.643a5.728 5.728 0 0 0-1.087-.393z" class="cls-20" transform="translate(-1117.117 -236.357)"/>
                    </g>
                    <g id="Group_1871" transform="translate(30.236 14.312)">
                        <path id="Path_2494" d="M1090.056 253.26a6.05 6.05 0 0 0-2.744 1.464l.081.523c.119.774 1.514 1.2 3.116.954s2.8-1.074 2.684-1.847l-.081-.523a6.049 6.049 0 0 0-3.056-.571z" class="cls-17" transform="translate(-1087.304 -252.807)"/>
                        <path id="Path_2495" d="M1089.952 250.633c1.6-.247 3 .18 3.116.954s-1.083 1.6-2.685 1.848-3-.18-3.116-.954 1.084-1.602 2.685-1.848z" class="cls-18" transform="translate(-1087.26 -250.563)"/>
                        <path id="Path_2496" d="M1091.977 251.82c1.4-.216 2.617.157 2.722.833s-.946 1.4-2.345 1.614-2.618-.157-2.722-.833.946-1.399 2.345-1.614z" class="cls-19" transform="translate(-1089.257 -251.572)"/>
                        <path id="Path_2497" d="M1092.96 255.348l-4.05-1.521a2.284 2.284 0 0 0-1.134.961l3.711 1.258a4.163 4.163 0 0 0 1.473-.698z" class="cls-20" transform="translate(-1087.696 -253.319)"/>
                        <path id="Path_2498" d="M1101.248 252.73a1 1 0 0 0 .282-.646l-3.137-1.056a5.724 5.724 0 0 0-1.119.29z" class="cls-20" transform="translate(-1095.715 -250.956)"/>
                    </g>
                    <g id="Group_1872" transform="translate(14.431 16.799)">
                        <path id="Path_2499" d="M989.881 271.657a6.049 6.049 0 0 0-2.744 1.464l.081.523c.119.774 1.514 1.2 3.116.954s2.8-1.074 2.685-1.847l-.081-.523a6.048 6.048 0 0 0-3.057-.571z" class="cls-17" transform="translate(-986.921 -270.827)"/>
                        <ellipse id="Ellipse_259" cx="2.935" cy="1.417" class="cls-18" rx="2.935" ry="1.417" transform="rotate(-8.75 5.847 .447)"/>
                        <path id="Path_2500" d="M991.8 270.216c1.4-.216 2.618.157 2.722.833s-.946 1.4-2.345 1.614-2.617-.157-2.722-.833.945-1.398 2.345-1.614z" class="cls-19" transform="translate(-988.874 -269.592)"/>
                        <path id="Path_2501" d="M992.786 273.745l-4.05-1.521a2.282 2.282 0 0 0-1.134.961l3.711 1.258a4.16 4.16 0 0 0 1.473-.698z" class="cls-20" transform="translate(-987.314 -271.339)"/>
                        <path id="Path_2502" d="M1001.073 271.127a1 1 0 0 0 .282-.646l-3.137-1.056a5.711 5.711 0 0 0-1.119.29z" class="cls-20" transform="translate(-995.332 -268.975)"/>
                    </g>
                    <g id="Group_1873" transform="translate(10.931 16.261)">
                        <path id="Path_2503" d="M967.409 268.2a6.047 6.047 0 0 0-2.744 1.464l.08.523c.119.774 1.514 1.2 3.116.954s2.8-1.074 2.685-1.848l-.081-.523a6.048 6.048 0 0 0-3.056-.57z" class="cls-17" transform="translate(-964.449 -267.372)"/>
                        <ellipse id="Ellipse_260" cx="2.935" cy="1.417" class="cls-18" rx="2.935" ry="1.417" transform="rotate(-8.75 5.847 .447)"/>
                        <path id="Path_2504" d="M969.329 266.761c1.4-.215 2.618.157 2.722.833s-.946 1.4-2.345 1.614-2.617-.157-2.722-.833.946-1.398 2.345-1.614z" class="cls-19" transform="translate(-966.401 -266.137)"/>
                        <path id="Path_2505" d="M970.313 270.29l-4.05-1.522a2.283 2.283 0 0 0-1.134.961l3.711 1.258a4.163 4.163 0 0 0 1.473-.697z" class="cls-20" transform="translate(-964.841 -267.883)"/>
                        <path id="Path_2506" d="M978.6 267.672a1 1 0 0 0 .282-.646l-3.138-1.056a5.708 5.708 0 0 0-1.119.29z" class="cls-20" transform="translate(-972.86 -265.52)"/>
                    </g>
                    <g id="Group_1874" transform="translate(4.768 14.938)">
                        <path id="Path_2507" d="M926.492 258.2a6.049 6.049 0 0 0-2.744 1.464l.081.523c.119.774 1.514 1.2 3.116.954s2.8-1.074 2.685-1.847l-.081-.523a6.049 6.049 0 0 0-3.057-.571z" class="cls-17" transform="translate(-923.74 -257.606)"/>
                        <path id="Path_2508" d="M926.388 255.574c1.6-.247 3 .18 3.116.954s-1.083 1.6-2.684 1.848-3-.18-3.116-.954 1.083-1.601 2.684-1.848z" class="cls-18" transform="translate(-923.696 -255.361)"/>
                        <ellipse id="Ellipse_261" cx="2.563" cy="1.238" class="cls-19" rx="2.563" ry="1.238" transform="rotate(-8.76 5.192 -.83)"/>
                        <path id="Path_2509" d="M929.4 260.29l-4.05-1.521a2.284 2.284 0 0 0-1.134.961l3.711 1.258a4.165 4.165 0 0 0 1.473-.698z" class="cls-20" transform="translate(-924.132 -258.118)"/>
                        <path id="Path_2510" d="M937.684 257.672a1 1 0 0 0 .282-.646l-3.138-1.056a5.713 5.713 0 0 0-1.119.29z" class="cls-20" transform="translate(-932.151 -255.755)"/>
                    </g>
                    <g id="Group_1875" transform="translate(19.654 10.461)">
                        <path id="Path_2511" d="M1022.094 228.533a6.048 6.048 0 0 0-2.744 1.467l.08.523c.119.774 1.515 1.2 3.116.954s2.8-1.074 2.685-1.848l-.081-.523a6.047 6.047 0 0 0-3.056-.573z" class="cls-17" transform="translate(-1019.342 -228.079)"/>
                        <path id="Path_2512" d="M1021.99 225.9c1.6-.247 3 .18 3.116.954s-1.083 1.6-2.684 1.847-3-.18-3.116-.954 1.082-1.596 2.684-1.847z" class="cls-18" transform="translate(-1019.297 -225.835)"/>
                        <path id="Path_2513" d="M1024.015 227.092c1.4-.215 2.617.157 2.722.833s-.946 1.4-2.345 1.614-2.618-.157-2.722-.833.946-1.399 2.345-1.614z" class="cls-19" transform="translate(-1021.295 -226.845)"/>
                        <path id="Path_2514" d="M1025 230.621l-4.05-1.522a2.284 2.284 0 0 0-1.134.961l3.711 1.258a4.161 4.161 0 0 0 1.473-.697z" class="cls-20" transform="translate(-1019.734 -228.591)"/>
                        <path id="Path_2515" d="M1033.286 228a1 1 0 0 0 .282-.646l-3.138-1.056a5.711 5.711 0 0 0-1.119.29z" class="cls-20" transform="translate(-1027.753 -226.228)"/>
                    </g>
                    <g id="Group_1876" transform="translate(13.389 10.981)">
                        <path id="Path_2516" d="M981.871 231.749a5.524 5.524 0 0 0-2.757.68l-.046.481c-.068.711 1.071 1.4 2.544 1.544s2.723-.321 2.791-1.033l.046-.481a5.524 5.524 0 0 0-2.578-1.191z" class="cls-17" transform="translate(-979.064 -231.337)"/>
                        <path id="Path_2517" d="M982.154 229.422c1.473.141 2.612.832 2.544 1.544s-1.318 1.174-2.791 1.033-2.612-.832-2.544-1.544 1.318-1.174 2.791-1.033z" class="cls-18" transform="translate(-979.314 -229.362)"/>
                        <ellipse id="Ellipse_262" cx="1.13" cy="2.341" class="cls-19" rx="1.13" ry="2.341" transform="rotate(-84.55 1.378 .972)"/>
                        <path id="Path_2518" d="M984.9 232.176l-3.243-2.256a2.084 2.084 0 0 0-1.22.6l3 1.947a3.8 3.8 0 0 0 1.463-.291z" class="cls-20" transform="translate(-980.222 -229.804)"/>
                        <path id="Path_2519" d="M993.64 231.569a.914.914 0 0 0 .395-.508l-2.54-1.639a5.233 5.233 0 0 0-1.055.005z" class="cls-20" transform="translate(-988.668 -229.363)"/>
                    </g>
                    <g id="Group_1877" transform="translate(9.048 10.919)">
                        <path id="Path_2520" d="M953.819 233.733a5.117 5.117 0 0 0-1.972 1.742l.169.415c.249.613 1.481.692 2.752.176s2.1-1.432 1.849-2.046l-.169-.415a5.118 5.118 0 0 0-2.629.128z" class="cls-17" transform="translate(-951.744 -232.753)"/>
                        <path id="Path_2521" d="M953.455 231.264c1.271-.516 2.5-.438 2.752.176s-.578 1.53-1.849 2.046-2.5.438-2.752-.176.579-1.529 1.849-2.046z" class="cls-18" transform="translate(-951.503 -230.588)"/>
                        <ellipse id="Ellipse_263" cx="2.169" cy="1.047" class="cls-19" rx="2.169" ry="1.047" transform="rotate(-22.12 4.177 .817)"/>
                        <path id="Path_2522" d="M956.044 237.749l-3.632-.461a1.932 1.932 0 0 0-.746 1.013l3.3.31a3.524 3.524 0 0 0 1.078-.862z" class="cls-20" transform="translate(-951.592 -235.962)"/>
                        <path id="Path_2523" d="M961.643 233.989a.847.847 0 0 0 .106-.587l-2.789-.256a4.845 4.845 0 0 0-.864.457z" class="cls-20" transform="translate(-957.019 -232.465)"/>
                    </g>
                    <g id="Group_1878" transform="translate(33.923 14.651)">
                        <path id="Path_2524" d="M1115.068 257.859a6.048 6.048 0 0 0-2.744 1.464l.08.523c.12.774 1.515 1.2 3.116.954s2.8-1.074 2.685-1.847l-.081-.523a6.049 6.049 0 0 0-3.056-.571z" class="cls-17" transform="translate(-1112.108 -257.029)"/>
                        <ellipse id="Ellipse_264" cx="2.935" cy="1.417" class="cls-18" rx="2.935" ry="1.417" transform="rotate(-8.76 5.836 .447)"/>
                        <path id="Path_2525" d="M1116.988 256.419c1.4-.216 2.618.157 2.722.833s-.946 1.4-2.345 1.614-2.617-.157-2.722-.833.946-1.399 2.345-1.614z" class="cls-19" transform="translate(-1114.06 -255.794)"/>
                        <path id="Path_2526" d="M1117.972 259.947l-4.05-1.521a2.282 2.282 0 0 0-1.134.961l3.711 1.258a4.164 4.164 0 0 0 1.473-.698z" class="cls-20" transform="translate(-1112.5 -257.541)"/>
                        <path id="Path_2527" d="M1126.26 257.329a1 1 0 0 0 .283-.646l-3.138-1.056a5.721 5.721 0 0 0-1.119.29z" class="cls-20" transform="translate(-1120.519 -255.178)"/>
                    </g>
                    <g id="Group_1879" transform="translate(22.603 16.017)">
                        <path id="Path_2528" d="M1041.495 264.511a6.047 6.047 0 0 0-3.1.244l-.135.512c-.2.757.908 1.706 2.474 2.121s3 .137 3.2-.619l.135-.512a6.049 6.049 0 0 0-2.574-1.746z" class="cls-17" transform="translate(-1038.236 -263.944)"/>
                        <path id="Path_2529" d="M1042.328 261.71c1.567.415 2.675 1.364 2.474 2.121s-1.633 1.034-3.2.619-2.675-1.364-2.474-2.121 1.634-1.029 3.2-.619z" class="cls-18" transform="translate(-1038.97 -261.518)"/>
                        <path id="Path_2530" d="M1044.246 262.956c1.368.362 2.336 1.191 2.161 1.852s-1.426.9-2.795.541-2.336-1.191-2.161-1.852 1.427-.903 2.795-.541z" class="cls-19" transform="translate(-1040.934 -262.59)"/>
                        <path id="Path_2531" d="M1045.359 264.551l-3.1-3.015a2.283 2.283 0 0 0-1.424.427l2.9 2.638a4.159 4.159 0 0 0 1.624-.05z" class="cls-20" transform="translate(-1040.428 -261.533)"/>
                        <path id="Path_2532" d="M1055.458 264.447a1 1 0 0 0 .517-.479l-2.453-2.223a5.724 5.724 0 0 0-1.141-.182z" class="cls-20" transform="translate(-1050.178 -261.556)"/>
                    </g>
                    <g id="Group_1880" transform="translate(23.411 13.176)">
                        <path id="Path_2533" d="M1046.688 246.267a6.049 6.049 0 0 0-3.1.244l-.135.512c-.2.757.908 1.706 2.474 2.121s3 .137 3.2-.619l.135-.511a6.048 6.048 0 0 0-2.574-1.747z" class="cls-17" transform="translate(-1043.429 -245.699)"/>
                        <path id="Path_2534" d="M1047.522 243.465c1.567.415 2.675 1.364 2.474 2.121s-1.633 1.034-3.2.619-2.675-1.364-2.474-2.121 1.633-1.034 3.2-.619z" class="cls-18" transform="translate(-1044.163 -243.273)"/>
                        <path id="Path_2535" d="M1049.44 244.712c1.368.362 2.336 1.191 2.161 1.852s-1.426.9-2.794.541-2.336-1.191-2.161-1.852 1.425-.903 2.794-.541z" class="cls-19" transform="translate(-1046.127 -244.346)"/>
                        <path id="Path_2536" d="M1050.552 246.306l-3.1-3.015a2.284 2.284 0 0 0-1.424.427l2.9 2.638a4.162 4.162 0 0 0 1.624-.05z" class="cls-20" transform="translate(-1045.621 -243.288)"/>
                        <path id="Path_2537" d="M1060.652 246.2a1 1 0 0 0 .517-.479l-2.453-2.223a5.721 5.721 0 0 0-1.141-.182z" class="cls-20" transform="translate(-1055.372 -243.311)"/>
                    </g>
                    <g id="Group_1881" transform="translate(11.298 12.283)">
                        <path id="Path_2538" d="M968.4 241.645a6.048 6.048 0 0 0-2.684 1.571l.1.519c.149.768 1.56 1.14 3.151.831s2.759-1.183 2.61-1.951l-.1-.519a6.049 6.049 0 0 0-3.077-.451z" class="cls-17" transform="translate(-965.699 -240.951)"/>
                        <path id="Path_2539" d="M968.252 238.953c1.591-.31 3 .062 3.151.831s-1.019 1.642-2.61 1.951-3-.063-3.151-.831 1.019-1.642 2.61-1.951z" class="cls-18" transform="translate(-965.629 -238.64)"/>
                        <ellipse id="Ellipse_265" cx="2.563" cy="1.238" class="cls-19" rx="2.563" ry="1.238" transform="rotate(-11 5.149 -.242)"/>
                        <path id="Path_2540" d="M971.265 244.09l-4.106-1.361a2.283 2.283 0 0 0-1.1 1.005l3.758 1.112a4.162 4.162 0 0 0 1.448-.756z" class="cls-20" transform="translate(-965.995 -241.92)"/>
                        <path id="Path_2541" d="M979.3 241.152a1 1 0 0 0 .257-.656l-3.177-.932a5.708 5.708 0 0 0-1.106.334z" class="cls-20" transform="translate(-973.773 -239.248)"/>
                    </g>
                    <g id="Group_1882" transform="translate(9.227 14.101)">
                        <path id="Path_2542" d="M955.518 252.005a6.049 6.049 0 0 0-3.076.458l-.1.52c-.147.769 1.023 1.639 2.615 1.945s3-.07 3.149-.839l.1-.52a6.05 6.05 0 0 0-2.688-1.564z" class="cls-17" transform="translate(-952.33 -251.518)"/>
                        <path id="Path_2543" d="M956.132 249.318c1.592.305 2.763 1.176 2.615 1.945s-1.557 1.144-3.149.839-2.762-1.176-2.615-1.945 1.557-1.144 3.149-.839z" class="cls-18" transform="translate(-952.871 -249.212)"/>
                        <path id="Path_2544" d="M958.086 250.523c1.39.267 2.413 1.027 2.284 1.7s-1.36 1-2.75.733-2.413-1.027-2.284-1.7 1.364-1 2.75-.733z" class="cls-19" transform="translate(-954.858 -250.241)"/>
                        <path id="Path_2545" d="M959.149 252.151l-3.3-2.793a2.283 2.283 0 0 0-1.391.525l3.073 2.432a4.162 4.162 0 0 0 1.618-.164z" class="cls-20" transform="translate(-954.123 -249.335)"/>
                        <path id="Path_2546" d="M969.057 251.879a1 1 0 0 0 .483-.514l-2.6-2.048a5.721 5.721 0 0 0-1.151-.1z" class="cls-20" transform="translate(-963.692 -249.214)"/>
                    </g>
                    <g id="Group_1883" transform="translate(5.998 12.322)">
                        <path id="Path_2547" d="M935.536 242.514a6.05 6.05 0 0 0-2.779 1.4l.067.525c.1.776 1.484 1.238 3.091 1.031s2.83-1 2.73-1.78l-.067-.525a6.048 6.048 0 0 0-3.042-.651z" class="cls-17" transform="translate(-932.576 -241.755)"/>
                        <ellipse id="Ellipse_266" cx="2.935" cy="1.417" class="cls-18" rx="2.935" ry="1.417" transform="rotate(-7.25 5.866 .37)"/>
                        <ellipse id="Ellipse_267" cx="2.563" cy="1.238" class="cls-19" rx="2.563" ry="1.238" transform="rotate(-7.324 7.063 -2.615)"/>
                        <path id="Path_2548" d="M938.461 244.389l-4.011-1.622a2.283 2.283 0 0 0-1.158.933l3.679 1.351a4.162 4.162 0 0 0 1.49-.662z" class="cls-20" transform="translate(-933.029 -241.992)"/>
                        <path id="Path_2549" d="M946.9 241.978a1 1 0 0 0 .3-.639l-3.11-1.134a5.714 5.714 0 0 0-1.126.262z" class="cls-20" transform="translate(-941.196 -239.829)"/>
                    </g>
                    <g id="Group_1884" transform="translate(6.448 15.531)">
                        <path id="Path_2550" d="M937.3 261.036a6.048 6.048 0 0 0-2.779 1.395l.067.525c.1.776 1.484 1.238 3.091 1.032s2.83-1 2.73-1.78l-.068-.525a6.047 6.047 0 0 0-3.041-.647z" class="cls-17" transform="translate(-934.516 -260.602)"/>
                        <path id="Path_2551" d="M937.221 258.445c1.608-.207 2.991.255 3.091 1.032s-1.122 1.573-2.73 1.78-2.991-.255-3.091-1.032 1.123-1.574 2.73-1.78z" class="cls-18" transform="translate(-934.485 -258.395)"/>
                        <path id="Path_2552" d="M939.246 259.622c1.4-.18 2.613.223 2.7.9s-.98 1.374-2.384 1.554-2.613-.223-2.7-.9.98-1.376 2.384-1.554z" class="cls-19" transform="translate(-936.488 -259.394)"/>
                        <path id="Path_2553" d="M940.226 262.911l-4.011-1.622a2.282 2.282 0 0 0-1.158.933l3.679 1.351a4.164 4.164 0 0 0 1.49-.662z" class="cls-20" transform="translate(-934.969 -260.838)"/>
                        <path id="Path_2554" d="M948.668 260.5a1 1 0 0 0 .3-.639l-3.11-1.134a5.727 5.727 0 0 0-1.126.262z" class="cls-20" transform="translate(-943.136 -258.675)"/>
                    </g>
                    <g id="Group_1885" transform="translate(18.262 14.357)">
                        <path id="Path_2555" d="M1013.245 253.367a6.048 6.048 0 0 0-2.884 1.164l.024.529c.036.782 1.378 1.355 3 1.28s2.9-.77 2.866-1.551l-.024-.529a6.049 6.049 0 0 0-2.982-.893z" class="cls-17" transform="translate(-1010.36 -252.973)"/>
                        <path id="Path_2556" d="M1013.223 250.861c1.619-.075 2.961.5 3 1.28s-1.247 1.477-2.866 1.551-2.961-.5-3-1.28 1.243-1.476 2.866-1.551z" class="cls-18" transform="translate(-1010.356 -250.855)"/>
                        <ellipse id="Ellipse_268" cx="2.563" cy="1.238" class="cls-19" rx="2.563" ry="1.238" transform="rotate(-2.652 6.724 -6.652)"/>
                        <path id="Path_2557" d="M1016.223 254.63l-3.865-1.944a2.284 2.284 0 0 0-1.23.835l3.556 1.646a4.163 4.163 0 0 0 1.539-.537z" class="cls-20" transform="translate(-1011.008 -252.401)"/>
                        <path id="Path_2558" d="M1025.13 252.9a1 1 0 0 0 .349-.612l-3.007-1.383a5.71 5.71 0 0 0-1.143.169z" class="cls-20" transform="translate(-1019.62 -250.896)"/>
                    </g>
                    <g id="Group_1886" transform="translate(18.62 17.417)">
                        <path id="Path_2559" d="M1015.546 273.02a6.049 6.049 0 0 0-2.884 1.164l.025.529c.036.782 1.378 1.355 3 1.28s2.9-.77 2.866-1.551l-.024-.529a6.05 6.05 0 0 0-2.983-.893z" class="cls-17" transform="translate(-1012.661 -272.626)"/>
                        <path id="Path_2560" d="M1015.524 270.514c1.619-.075 2.961.5 3 1.28s-1.247 1.477-2.866 1.551-2.961-.5-3-1.28 1.242-1.476 2.866-1.551z" class="cls-18" transform="translate(-1012.657 -270.508)"/>
                        <ellipse id="Ellipse_269" cx="2.563" cy="1.238" class="cls-19" rx="2.563" ry="1.238" transform="rotate(-2.652 6.724 -6.652)"/>
                        <path id="Path_2561" d="M1018.525 274.283l-3.865-1.944a2.283 2.283 0 0 0-1.23.835l3.556 1.646a4.163 4.163 0 0 0 1.539-.537z" class="cls-20" transform="translate(-1013.31 -272.054)"/>
                        <path id="Path_2562" d="M1027.431 272.553a1 1 0 0 0 .349-.612l-3.007-1.383a5.707 5.707 0 0 0-1.143.169z" class="cls-20" transform="translate(-1021.921 -270.549)"/>
                    </g>
                    <g id="Group_1887" transform="translate(27.868 8.974)">
                        <path id="Path_2563" d="M1082.073 226.408a2.933 2.933 0 0 0-3.232-2l-.013-.039-.449.145a2.935 2.935 0 1 0 1.8 5.586l.449-.145-.013-.039a2.933 2.933 0 0 0 1.458-3.508z" class="cls-17" transform="translate(-1075.676 -223.111)"/>
                        <circle id="Ellipse_270" cx="2.935" cy="2.935" r="2.935" class="cls-18" transform="rotate(-57.45 4.513 2.473)"/>
                        <circle id="Ellipse_271" cx="2.563" cy="2.563" r="2.563" class="cls-19" transform="rotate(-29.849 6.102 .513)"/>
                        <path id="Path_2564" d="M1083.385 229.111l3.023-4.936a2.941 2.941 0 0 0-1.921-.712l-2.5 4.458a2.936 2.936 0 0 0 1.398 1.19z" class="cls-20" transform="translate(-1080.441 -222.345)"/>
                        <path id="Path_2565" d="M1094.241 234.688a2.91 2.91 0 0 0 1.289-.019l2.1-3.765a2.919 2.919 0 0 0-.582-1.021z" class="cls-20" transform="translate(-1090.786 -227.766)"/>
                    </g>
                    <g id="Group_1888" transform="translate(15.582 9.179)">
                        <path id="Path_2566" d="M1002.368 226.972a2.933 2.933 0 0 0-3.671-.981l-.024-.034-.388.268a2.935 2.935 0 0 0 3.336 4.829l.388-.268-.023-.034a2.933 2.933 0 0 0 .382-3.78z" class="cls-17" transform="translate(-996.415 -224.445)"/>
                        <circle id="Ellipse_272" cx="2.935" cy="2.935" r="2.935" class="cls-18" transform="rotate(-26.1 5.569 1.291)"/>
                        <circle id="Ellipse_273" cx="2.563" cy="2.563" r="2.563" class="cls-19" transform="translate(1.363 1.363)"/>
                        <path id="Path_2567" d="M1007.457 229.83l1.47-5.6a2.941 2.941 0 0 0-2.045-.128l-1.106 4.989a2.933 2.933 0 0 0 1.681.739z" class="cls-20" transform="translate(-1003.809 -222.985)"/>
                        <path id="Path_2568" d="M1020 232.24a2.911 2.911 0 0 0 1.229-.39l.921-4.209a2.927 2.927 0 0 0-.851-.81z" class="cls-20" transform="translate(-1015.82 -225.394)"/>
                    </g>
                    <g id="Group_1889" transform="translate(13.168 11.822)">
                        <path id="Path_2569" d="M987.7 244.733a2.791 2.791 0 0 0-3.039 1.959l-.039-.005-.059.445a2.793 2.793 0 1 0 5.536.739l.059-.445-.039-.005a2.791 2.791 0 0 0-2.419-2.688z" class="cls-17" transform="translate(-983.464 -243.131)"/>
                        <circle id="Ellipse_274" cx="2.793" cy="2.793" r="2.793" class="cls-18" transform="matrix(.78 -.625 .625 .78 0 3.492)"/>
                        <circle id="Ellipse_275" cx="2.439" cy="2.439" r="2.439" class="cls-19" transform="rotate(-37.054 5.4 .965)"/>
                        <path id="Path_2570" d="M991.049 248l-3-4.617a2.8 2.8 0 0 0-1.4 1.359l2.808 3.971a2.792 2.792 0 0 0 1.592-.713z" class="cls-20" transform="translate(-985.245 -242.014)"/>
                        <path id="Path_2571" d="M1000.959 246.335a2.769 2.769 0 0 0 .511-1.115l-2.377-3.342a2.785 2.785 0 0 0-1.115.082z" class="cls-20" transform="translate(-994.813 -240.722)"/>
                    </g>
                    <g id="Group_1890" transform="translate(24.128 7.901)">
                        <path id="Path_2572" d="M1057.117 218.576a2.617 2.617 0 0 0-2.96 1.655l-.036-.007-.082.413a2.619 2.619 0 1 0 5.138 1.017l.082-.413-.036-.007a2.617 2.617 0 0 0-2.106-2.658z" class="cls-17" transform="translate(-1053.061 -217.103)"/>
                        <circle id="Ellipse_276" cx="2.619" cy="2.619" r="2.619" class="cls-18" transform="rotate(-33.49 4.801 1.444)"/>
                        <circle id="Ellipse_277" cx="2.287" cy="2.287" r="2.287" class="cls-19" transform="rotate(-64.611 4.02 1.897)"/>
                        <path id="Path_2573" d="M1060.545 221.417l-2.54-4.5a2.624 2.624 0 0 0-1.389 1.19l2.394 3.881a2.618 2.618 0 0 0 1.535-.571z" class="cls-20" transform="translate(-1055.28 -215.747)"/>
                        <path id="Path_2574" d="M1070.318 220.206a2.6 2.6 0 0 0 .544-1.014l-2.028-3.267a2.61 2.61 0 0 0-1.048.011z" class="cls-20" transform="translate(-1064.71 -214.867)"/>
                    </g>
                    <g id="Group_1891" transform="translate(26.255 12.761)">
                        <path id="Path_2575" d="M1069.336 248.346a2.473 2.473 0 0 0-2.8 1.563l-.034-.007-.077.39a2.474 2.474 0 1 0 4.854.961l.077-.39-.034-.007a2.472 2.472 0 0 0-1.986-2.51z" class="cls-17" transform="translate(-1065.65 -247.101)"/>
                        <circle id="Ellipse_278" cx="2.474" cy="2.474" r="2.474" class="cls-18" transform="rotate(-65.272 3.51 2.248)"/>
                        <path id="Path_2576" d="M1071.47 247.848a2.161 2.161 0 1 1-2.539 1.7 2.161 2.161 0 0 1 2.539-1.7z" class="cls-19" transform="translate(-1067.768 -246.685)"/>
                        <path id="Path_2577" d="M1072.575 251.03l-2.4-4.249a2.481 2.481 0 0 0-1.312 1.124l2.262 3.667a2.476 2.476 0 0 0 1.45-.542z" class="cls-20" transform="translate(-1067.746 -245.82)"/>
                        <path id="Path_2578" d="M1081.808 249.886a2.452 2.452 0 0 0 .514-.958l-1.916-3.087a2.467 2.467 0 0 0-.99.011z" class="cls-20" transform="translate(-1076.656 -244.989)"/>
                    </g>
                    <g id="Group_1892" transform="translate(20.969 9.953)">
                        <path id="Path_2579" d="M1036.435 231.494a2.846 2.846 0 0 0-3.558.7l-.037-.018-.186.378a2.942 2.942 0 0 0 5.249 2.579l.186-.378-.037-.018a2.846 2.846 0 0 0-1.617-3.243z" class="cls-17" transform="translate(-1031.682 -229.826)"/>
                        <ellipse id="Ellipse_279" cx="2.623" cy="2.925" class="cls-18" rx="2.623" ry="2.925" transform="rotate(-63.83 3.78 2.354)"/>
                        <ellipse id="Ellipse_280" cx="2.291" cy="2.554" class="cls-19" rx="2.291" ry="2.554" transform="rotate(-63.82 3.913 1.903)"/>
                        <path id="Path_2580" d="M1041.646 233.941l-1.642-5.18a2.7 2.7 0 0 0-1.768.734l1.633 4.532a2.992 2.992 0 0 0 1.777-.086z" class="cls-20" transform="translate(-1036.602 -227.797)"/>
                        <path id="Path_2581" d="M1053.844 233.762a2.41 2.41 0 0 0 .823-.823l-1.388-3.819a3.2 3.2 0 0 0-1.123-.313z" class="cls-20" transform="translate(-1048.355 -227.837)"/>
                    </g>
                    <circle id="Ellipse_281" cx="2.277" cy="2.277" r="2.277" fill="url(#linear-gradient)" opacity="0.7" transform="rotate(-67.257 22.118 -8.895)"/>
                    <path id="Path_2582" fill="url(#linear-gradient-2)" d="M1008.245 229.435a2.289 2.289 0 1 1-2.58-2.212 2.409 2.409 0 0 1 2.58 2.212z" opacity="0.5" transform="translate(-986.479 -216.531)"/>
                    <circle id="Ellipse_282" cx="2.277" cy="2.277" r="2.277" fill="url(#linear-gradient-3)" transform="rotate(-49.786 24.205 -7.07)"/>
                    <circle id="Ellipse_283" cx="2.277" cy="2.277" r="2.277" fill="url(#linear-gradient-4)" transform="rotate(-31.72 35.898 -44.611)"/>
                    <ellipse id="Ellipse_284" cx="13.434" cy="8.465" fill="url(#radial-gradient)" rx="13.434" ry="8.465" transform="rotate(-2.56 119.226 2.592)"/>
                    <ellipse id="Ellipse_285" cx="7.472" cy="11.859" fill="url(#radial-gradient-2)" rx="7.472" ry="11.859" transform="rotate(-60 17.759 -4.875)"/>
                    <ellipse id="Ellipse_286" cx="1.215" cy="2.015" fill="url(#linear-gradient-5)" rx="1.215" ry="2.015" transform="rotate(-51.457 31.536 -28.316)"/>
                    <path id="Path_2583" d="M993.26 225.523c1.432.03 2.55.034 2.55.009s-1.116-.071-2.548-.106c1.978-.77 3.529-1.4 3.516-1.438s-1.586.544-3.566 1.309c1.034-.992 1.827-1.778 1.81-1.8s-.839.739-1.876 1.727c.854-1.943 1.5-3.489 1.469-3.5s-.737 1.506-1.6 3.448c.03-1.432.035-2.55.01-2.55s-.071 1.116-.105 2.548c-.77-1.978-1.4-3.529-1.438-3.516s.544 1.586 1.31 3.566c-.992-1.034-1.779-1.827-1.8-1.81s.739.839 1.727 1.876c-1.943-.854-3.489-1.5-3.5-1.469s1.506.737 3.448 1.6c-1.432-.03-2.55-.035-2.55-.01s1.116.071 2.548.106c-1.978.77-3.529 1.4-3.516 1.438s1.586-.544 3.566-1.309c-1.034.992-1.827 1.778-1.81 1.8s.839-.739 1.876-1.727c-.854 1.943-1.5 3.489-1.469 3.5s.737-1.506 1.6-3.447c-.03 1.432-.034 2.55-.009 2.55s.071-1.116.105-2.548c.77 1.978 1.4 3.529 1.439 3.516s-.544-1.586-1.31-3.566c.992 1.034 1.779 1.827 1.8 1.81s-.739-.839-1.727-1.876c1.943.854 3.489 1.5 3.5 1.469s-1.51-.742-3.45-1.6z" class="cls-3" transform="translate(-974.191 -211.844)"/>
                    <path id="Path_2584" d="M1058.658 236.426c.79.016 1.407.019 1.407.005s-.616-.039-1.406-.058c1.091-.425 1.947-.775 1.94-.794s-.875.3-1.968.722c.57-.547 1.008-.981 1-.991s-.463.408-1.036.953c.471-1.072.829-1.925.811-1.933s-.407.831-.88 1.9c.016-.79.019-1.407.005-1.407s-.039.616-.058 1.406c-.425-1.091-.775-1.947-.794-1.94s.3.875.723 1.968c-.547-.57-.981-1.008-.991-1s.408.463.953 1.035c-1.072-.471-1.925-.829-1.933-.811s.831.407 1.9.88c-.79-.017-1.407-.019-1.407-.005s.616.039 1.406.058c-1.091.425-1.947.775-1.94.794s.875-.3 1.968-.722c-.571.547-1.008.981-1 .991s.463-.408 1.035-.953c-.471 1.072-.829 1.925-.811 1.933s.407-.831.88-1.9c-.016.79-.019 1.407-.005 1.407s.039-.616.058-1.406c.425 1.091.775 1.947.794 1.94s-.3-.875-.723-1.968c.547.57.981 1.008.991 1s-.408-.463-.953-1.035c1.072.471 1.925.829 1.933.81s-.828-.405-1.899-.879z" class="cls-3" transform="translate(-1030.961 -222.514)"/>
                    <path id="Path_2585" d="M1042.581 216.547c.668.422 1.195.743 1.2.731s-.507-.351-1.174-.776c1.154.2 2.068.343 2.071.323s-.9-.2-2.058-.4c.771-.174 1.37-.319 1.367-.333s-.607.11-1.379.281c.958-.675 1.7-1.22 1.693-1.236s-.778.5-1.737 1.174c.422-.668.743-1.195.732-1.2s-.352.507-.776 1.174c.2-1.154.343-2.068.323-2.071s-.2.9-.4 2.058c-.174-.771-.319-1.37-.333-1.367s.11.607.281 1.379c-.675-.957-1.22-1.7-1.236-1.693s.5.778 1.174 1.737c-.668-.422-1.195-.743-1.2-.732s.507.352 1.173.776c-1.154-.2-2.068-.343-2.071-.323s.9.2 2.058.4c-.771.174-1.37.319-1.367.333s.607-.11 1.379-.281c-.957.675-1.7 1.22-1.693 1.236s.778-.5 1.737-1.174c-.422.668-.743 1.195-.732 1.2s.352-.507.776-1.174c-.2 1.154-.343 2.068-.323 2.071s.2-.9.4-2.058c.174.771.319 1.37.333 1.367s-.11-.607-.281-1.379c.675.957 1.22 1.7 1.236 1.693s-.5-.777-1.173-1.736z" class="cls-3" transform="translate(-1017.32 -205.562)"/>
                    <path id="Path_2586" d="M1101.862 235.758c.254.748.462 1.329.475 1.324s-.173-.592-.425-1.341c.772.881 1.393 1.566 1.408 1.553s-.581-.72-1.351-1.6c.709.349 1.266.613 1.273.6s-.541-.3-1.249-.648c1.169.077 2.092.122 2.094.1s-.92-.1-2.089-.178c.748-.254 1.329-.462 1.325-.475s-.592.173-1.341.425c.881-.772 1.566-1.393 1.553-1.408s-.72.581-1.6 1.351c.349-.709.613-1.267.6-1.273s-.3.541-.648 1.249c.077-1.169.122-2.092.1-2.094s-.1.92-.178 2.089c-.254-.748-.462-1.329-.475-1.325s.173.592.425 1.341c-.772-.881-1.393-1.566-1.408-1.553s.581.72 1.351 1.6c-.709-.349-1.267-.613-1.273-.6s.541.3 1.249.648c-1.168-.077-2.092-.122-2.094-.1s.92.1 2.089.178c-.748.254-1.329.462-1.325.475s.592-.174 1.341-.425c-.881.772-1.566 1.393-1.553 1.408s.72-.581 1.6-1.351c-.349.709-.613 1.267-.6 1.273s.3-.541.648-1.249c-.077 1.169-.122 2.092-.1 2.094s.098-.92.178-2.088z" class="cls-3" transform="translate(-1067.428 -221.712)"/>
                    <path id="Path_2587" d="M1127.517 245.055c.209.615.38 1.091.39 1.088s-.142-.486-.349-1.1c.634.723 1.144 1.286 1.156 1.275s-.477-.592-1.109-1.316c.582.287 1.04.5 1.045.493s-.445-.243-1.026-.532c.96.063 1.718.1 1.719.084s-.756-.081-1.715-.146c.615-.209 1.091-.38 1.088-.391s-.486.143-1.1.349c.723-.634 1.286-1.144 1.275-1.157s-.592.477-1.317 1.109c.287-.582.5-1.04.493-1.045s-.243.445-.532 1.026c.063-.96.1-1.719.084-1.72s-.081.756-.146 1.715c-.209-.615-.38-1.092-.39-1.088s.142.486.349 1.1c-.634-.724-1.144-1.286-1.157-1.275s.477.592 1.11 1.317c-.583-.287-1.04-.5-1.045-.493s.445.243 1.026.532c-.96-.063-1.719-.1-1.72-.084s.756.081 1.715.146c-.615.209-1.092.38-1.088.391s.486-.142 1.1-.349c-.723.634-1.286 1.144-1.275 1.157s.592-.477 1.317-1.11c-.287.582-.5 1.04-.493 1.045s.243-.445.532-1.026c-.063.96-.1 1.719-.084 1.72s.082-.755.147-1.715z" class="cls-3" transform="translate(-1089.432 -229.926)"/>
                </g>
                <g id="Group_1933" transform="translate(8.007 25.633)">
                    <g id="Group_1929">
                        <path id="Path_2588" d="M971.892 290.513a7.032 7.032 0 0 1 1.3.447c-.292-.348-.836-.339-1.3-.447z" class="cls-28" transform="translate(-960.648 -284.976)"/>
                        <path id="Path_2589" d="M979.063 419.1c-.431-.212-.826-.473-1.269-.684a4.59 4.59 0 0 0-1.32-.343z" class="cls-28" transform="translate(-964.516 -392.67)"/>
                        <path id="Path_2590" d="M981 383.713a20.848 20.848 0 0 0 2.492 1.059l-.038-.687c-.45-.046-.9-.029-1.355-.088a5.924 5.924 0 0 1-1.099-.284z" class="cls-29" transform="translate(-968.339 -363.664)"/>
                        <path id="Path_2591" d="M937.141 378.082c.128-.447-1.339-.745-1.764-.952l.246 1.3c.521.043 1.409.032 1.518-.348z" class="cls-29" transform="translate(-929.818 -358.106)"/>
                        <path id="Path_2592" d="M1032.782 258.946l-28.968 5.35.344-.89 26.278-4.687z" class="cls-6" transform="translate(-987.599 -258.133)"/>
                        <path id="Path_2593" d="M899.676 254.951l3.286.229 13.273 5.045-.344.89z" class="cls-7" transform="translate(-899.676 -254.951)"/>
                        <g id="Group_1896" transform="translate(16.215 .814)">
                            <path id="Path_2594" d="M1005 286.919l23.837-5.249 3.946-21.495-28.968 5.35z" class="cls-30" transform="translate(-1003.814 -260.176)"/>
                            <path id="Path_2595" d="M1170.289 332.585l.18-.982c-.154-.594-.312-1.187-.41-1.792a7 7 0 0 1 .041-1.923 17.012 17.012 0 0 0 .189 4.697z" class="cls-30" transform="translate(-1144.119 -317.344)"/>
                            <g id="Group_1894" class="cls-14">
                                <path id="Path_2596" d="M1066.372 419.063l.546-.12a.549.549 0 0 0-.546.12z" class="cls-30" transform="translate(-1056.631 -394.204)"/>
                                <path id="Path_2597" d="M1133.681 401.066a2.5 2.5 0 0 0-.629.565l1.376-.3c-.165-.283-.396-.463-.747-.265z" class="cls-30" transform="translate(-1112.929 -379.058)"/>
                                <path id="Path_2598" d="M1007.456 345.27a30.494 30.494 0 0 1-.4-3.206 3.462 3.462 0 0 0-.045.887c.007.092-.1.16-.192.177l.091 1.642c.04 0 .071.035.073.1.018.524.237 1.014.254 1.534a2.965 2.965 0 0 1-.181 1.014l.041.729c.11-.243.221-.486.318-.735a3.145 3.145 0 0 0 .041-2.142z" class="cls-30" transform="translate(-1006.355 -329.313)"/>
                                <path id="Path_2599" d="M1027.99 262.96a4.166 4.166 0 0 1 2.68-1.134 7.59 7.59 0 0 1 1.756.293l.357-1.943-.406.075a1.605 1.605 0 0 1-.6.439c-.694.33-1.452.483-2.14.844a7.183 7.183 0 0 1-2.807 1.2c-.846.072-1.9.467-2.725.166a.2.2 0 0 1-.054-.327c.417-.322.772-.715 1.2-1.008l-.518.1a.219.219 0 0 1-.107.133c-.868.427-1.547 1.144-2.419 1.566a4.287 4.287 0 0 1-.6.232c.381-.041.763-.075 1.147-.079 1.154-.012 2.31.2 3.455.293.192.016.128.365-.041.351-1.156-.1-2.321-.315-3.487-.314-1.147 0-2.274.256-3.429.245-.191 0-.066-.311.057-.341a12.689 12.689 0 0 0 3.006-.8c.632-.333 1.172-.8 1.774-1.172l-1.441.266c-.655.311-1.3.649-1.974.925a24.551 24.551 0 0 1-3.911 1.076 44.589 44.589 0 0 1-4.474.457 8.4 8.4 0 0 0-2.064.467 4.447 4.447 0 0 1-1.6.39c-.192 0-.1-.35.078-.35a5.653 5.653 0 0 0 1.913-.52 9.413 9.413 0 0 1 2.1-.374 31.147 31.147 0 0 0 4.532-.535 21.852 21.852 0 0 0 4.008-1.239l.133-.064-17.567 3.245.411 7.423c.044-.248.1-.495.16-.743a.137.137 0 0 1 .266.009 8.767 8.767 0 0 1 .247 2.051 9.936 9.936 0 0 0 .381 2.087c.34 1.309-.221 2.245-.677 3.408l.058 1.054a6.261 6.261 0 0 1 .208-.713c.07-.194.361-.176.277.05a7.4 7.4 0 0 0-.409 2.049l.261 4.718 4.586-1.01a9.772 9.772 0 0 1 1.324-.576c.388-.115 1.119-.18 1.42-.537a5.987 5.987 0 0 0-2.569.294c-.174.08-.21-.283-.048-.356a7.284 7.284 0 0 1 2.876-.3c.117 0 .145.15.131.232a.927.927 0 0 1-.589.688l1.013-.223a.954.954 0 0 1 1.225-.514c.208.045.4.083.6.113l2.83-.623c.222-.089.442-.182.658-.285a31.771 31.771 0 0 0 5.611-2.992c.181-.137.311.082.137.216a25.647 25.647 0 0 1-4.75 2.7l2.018-.444.435-.2a6.9 6.9 0 0 0 1.971-1.334 7.91 7.91 0 0 1 1.6-1.336c.2-.112.2.223.061.31a9.676 9.676 0 0 0-1.624 1.472 5.24 5.24 0 0 1-1.037.784l.63-.139c.375-.428.792-1.09 1.351-1.12.362-.019.6.3.762.655l.368-.081a.8.8 0 0 1-.4-1.194c.207-.314.574-.463.829-.728.278-.289.474-.716.869-.871.631-.248 1.088.637 1.3 1.1.08.176-.2.408-.27.18-.119-.4-.541-1.167-1.025-.876a2.517 2.517 0 0 0-.528.6 2.922 2.922 0 0 1-.542.474c-.254.193-.625.535-.359.881a.94.94 0 0 0 .609.271.69.69 0 0 1-.177-.175c-.4-.577.6-1.132.882-1.482.118-.145.34-.017.217.141-.2.259-.468.459-.685.7-.065.073-.2.2-.211.3-.02.177.2.229.345.273s.288.078.435.111l1.561-.344.045-.246a5.776 5.776 0 0 0-.491-1.841 3.08 3.08 0 0 1-.089-1.533c-.238.434-.483 1.02-.977.98-.207-.017-.08-.27.063-.289.462-.064.686-.978.945-1.295.092-.113.21.044.224.13a6.28 6.28 0 0 1-.019 1.143 3.144 3.144 0 0 0 .369 1.3 4.518 4.518 0 0 1 .148.473l.145-.791c-.047-.978-.168-1.958-.252-2.93-.047-.547-.117-1.089-.149-1.632a6.914 6.914 0 0 1-.24.978c-.231.679-.63 1.286-.872 1.965-.069.194-.309 0-.268-.152a11.786 11.786 0 0 1 .727-1.669 14.99 14.99 0 0 0 .642-2.521.19.19 0 0 1 .109-.132c.09-.108.276-.129.242.054a14.724 14.724 0 0 0 .142 3.875c.033.382.072.762.106 1.143l.4-2.194c-.253-2.423-.875-4.981.129-7.269.044-.1.109-.1.161-.062.059-.007.107.022.1.107a16.55 16.55 0 0 0-.14 3.288 11.3 11.3 0 0 0 .252 1.191l.357-1.944c-.005-.581-.023-1.163-.033-1.745a33.683 33.683 0 0 1 .239-3.634 12.238 12.238 0 0 1-.483 1.262 13.052 13.052 0 0 0-1.225 3.059 13.288 13.288 0 0 1-.454 2.538c-.323.882-.77 1.714-1.123 2.585-.077.19-.305-.025-.256-.172.328-.975.855-1.866 1.179-2.841.306-.922.2-1.912.5-2.83.56-1.711 1.734-3.169 1.913-5.006.016-.168.366-.238.329-.053l-.024.11a.093.093 0 0 1 .059.105c-.131 1.751-.389 3.449-.362 5.211l.35-1.907c.164-1.921.281-3.846.277-5.785 0-.184.285-.288.284-.055q-.01 1.57-.066 3.148l.61-3.322c-.32-.079-.641-.155-.967-.209a3.955 3.955 0 0 0-3.266.936c-.189.145-.301-.106-.145-.233zm-23.094 6.555c.018-.189.339-.263.3-.03-.182 1.1.478 2.206.882 3.2a10.639 10.639 0 0 1 .527 3.755c.006.207-.274.3-.282.056a10.349 10.349 0 0 0-.571-3.836 6.659 6.659 0 0 1-.852-3.144zm.464 4.457c-.262-1.656-1.233-3.352-1.1-5.051.019-.239.294-.166.292.046-.018 1.538.709 2.9.987 4.386a22.134 22.134 0 0 0 .917 4.519c.066.159-.221.388-.288.194a23.516 23.516 0 0 1-.809-4.093zm.685 8.828c-.075-.6-.209-1.18-.242-1.781-.009-.171.355-.274.353-.1a10.966 10.966 0 0 0 .206 1.733c.024.169-.292.348-.317.148zm.61.2a8.609 8.609 0 0 0-.543-2.7c-.132-.321-.285-.62-.409-.929-.039.738.03 1.528.012 2.219a19.223 19.223 0 0 0 .072 2.445c.023.228-.257.254-.284.028a25.213 25.213 0 0 1-.043-3.494 14.209 14.209 0 0 1 .045-1.883c-.01-.062-.02-.124-.025-.188a.182.182 0 0 1 .1-.158c0-.009 0-.017.006-.026.055-.2.346-.186.279.044-.017.059-.033.119-.047.18a10.893 10.893 0 0 0 .795 2.328 9.48 9.48 0 0 1 .339 2.178c.004.239-.284.156-.298-.044zm1.682-16.378a9.657 9.657 0 0 1 2.748-1.5 17.945 17.945 0 0 1 3.1-.4c2.636-.362 5.307-.277 7.932-.51.191-.017.136.335-.033.353-2.386.261-4.811.172-7.218.429-1.057.113-2.167.154-3.216.337a7.943 7.943 0 0 0-3.188 1.555c-.191.149-.275-.152-.126-.265zm7.284-1.1a15.818 15.818 0 0 0-3.179.3c-1.108.229-1.624 1.075-2.506 1.66-.18.119-.233-.233-.1-.331.751-.557 1.3-1.359 2.247-1.612a13.521 13.521 0 0 1 3.614-.358c.17.006.072.342-.077.343zm2.781 17.932c-1.387.447-3.077 1.131-4.548.713a8.056 8.056 0 0 0-1.227-.335 4.985 4.985 0 0 0-2 .38 4.781 4.781 0 0 1-1.782.28c-.193-.012-.3-.345-.069-.324 1.386.124 2.576-.88 3.959-.661.43.068.833.231 1.254.334a4.016 4.016 0 0 0 1.657 0 20.491 20.491 0 0 0 2.726-.644c.228-.075.22.198.028.259zm4.8-2.329c-.2.1-.4.187-.6.286a.219.219 0 0 1-.124.134 20.682 20.682 0 0 1-2.182.926c-.753.189-1.522.33-2.279.519a6.672 6.672 0 0 1-2.086.281c-.7-.045-1.389-.185-2.1-.2-.178 0-.188-.364.013-.358.692.019 1.367.156 2.055.2a7.72 7.72 0 0 0 2.346-.353c.739-.183 1.51-.294 2.237-.508a15.99 15.99 0 0 0 1.582-.647.2.2 0 0 1 .036-.024c.348-.18.7-.358 1.037-.552.227-.129.245.209.063.298zm5.006-9.557c.236-1.1.49-2.2.755-3.289a10.663 10.663 0 0 1 1.246-2.725 3.907 3.907 0 0 0 .382-1.331c.037-.236.24-1.552-.292-1.086-.159.139-.253-.127-.141-.241 1.043-1.053.718 1.491.629 1.94a9.446 9.446 0 0 1-1.086 2.288 28.184 28.184 0 0 0-1.218 4.564c-.064.226-.315.069-.274-.118z" class="cls-30" transform="translate(-1003.815 -260.176)"/>
                                <path id="Path_2600" d="M1153.014 264.709l-1.392.257a2.4 2.4 0 0 0-.876.684 4.863 4.863 0 0 0 2.268-.941z" class="cls-30" transform="translate(-1127.868 -264.003)"/>
                                <path id="Path_2601" d="M1138.36 263.469a4.937 4.937 0 0 0 2.339-.649 10.427 10.427 0 0 1 2.122-1.045 8.649 8.649 0 0 0 1.025-.348l-2.116.391a.175.175 0 0 1-.056.066 5.368 5.368 0 0 1-3.146 1.357c-.121 0-.177-.187-.132-.279a2.064 2.064 0 0 1 .476-.616l-.7.129a.211.211 0 0 1-.119.127 4.174 4.174 0 0 0-1.446 1.086 7.817 7.817 0 0 0 1.753-.219z" class="cls-30" transform="translate(-1115.933 -261.232)"/>
                            </g>
                            <path id="Path_2602" d="M1016.444 279.269l24.755-4.612-3.261 17.732-20.521 4.486z" class="cls-31" transform="translate(-1014.477 -272.402)"/>
                            <g id="Group_1895" class="cls-32" transform="translate(1.967 2.255)">
                                <path id="Path_2603" d="M1087.369 281.763a13.724 13.724 0 0 1-3.666 1.043 15.633 15.633 0 0 0-2.346.336c-.61.184-1.189.457-1.8.647-1.022.319-2.054.6-3.082.912 2.543-.326 4.974-1.239 7.47-1.691.692-.125 1.393-.189 2.078-.34 1.065-.234 2.086-.681 3.156-.882a9.678 9.678 0 0 1 2.4 0l.114-.62a9.876 9.876 0 0 0-4.324.595z" class="cls-31" transform="translate(-1067.129 -280.15)"/>
                                <path id="Path_2604" d="M1030.447 276.717c-.528.2-1.057.4-1.6.574-1.322.424-2.717.595-4.06.967-2.647.733-5.178 1.906-7.985 2.025l.03.547a11.644 11.644 0 0 0 3.1-.5 11.857 11.857 0 0 1 3.246-.748c1.171-.021 2.286.43 3.457.405a12.011 12.011 0 0 0 3.549-.335c.846-.3 1.517-.94 2.369-1.223a16.265 16.265 0 0 1 3.067-.393c.639-.083 1.255-.27 1.887-.38.519-.09 1.065-.108 1.572-.242a7.664 7.664 0 0 1 1.345-.378c.214-.018.428-.023.642-.024l.065-.353c-.345-.021-.691-.051-1.04-.073a6.867 6.867 0 0 0-2.439.33 29.718 29.718 0 0 1-3.732.831c-3.108.484-6.048 1.688-9.244 1.9-.185.012-.083-.266.022-.306 1.527-.587 3.108-.944 4.641-1.472a18.915 18.915 0 0 1 1.992-.685c.642-.144 1.312-.136 1.962-.229a12.945 12.945 0 0 0 2.531-.573c.655-.235 1.263-.581 1.925-.793a10.349 10.349 0 0 1 3.625-.257l.124-.674z" class="cls-31" transform="translate(-1016.747 -274.657)"/>
                                <path id="Path_2605" d="M1025.548 320.981a13.023 13.023 0 0 1 2.2-.657c.74-.13 1.488-.207 2.219-.376s1.44-.424 2.177-.571a5.548 5.548 0 0 0 1.433-.341c-.733-.259-1.839.185-2.527.286-1.329.2-2.659.285-3.976.6a73.272 73.272 0 0 1-8.8 1.893l.019.34a30 30 0 0 1 4.513-.94c.224-.038.281.2.056.246a38.745 38.745 0 0 0-4.552 1.009l.036.658a27.712 27.712 0 0 0 2.875-1.027c1.417-.468 2.924-.614 4.327-1.12z" class="cls-31" transform="translate(-1017.984 -312.059)"/>
                                <path id="Path_2606" d="M1126.7 306.163a26.093 26.093 0 0 0-3.436.677 30.916 30.916 0 0 0 3.533-.172c.7-.082 1.393-.24 2.094-.323.482-.057.98-.028 1.46-.087l.154-.838a10.472 10.472 0 0 1-1.783.479c-.672.091-1.347.151-2.022.264z" class="cls-31" transform="translate(-1106.633 -300.628)"/>
                                <path id="Path_2607" d="M1144.88 331.266c.614-.068 1.229-.083 1.84-.13l.185-1.006a29.808 29.808 0 0 1-3.379 1.3c.451-.058.902-.114 1.354-.164z" class="cls-31" transform="translate(-1123.738 -321.493)"/>
                                <path id="Path_2608" d="M1081.955 325.388a14.465 14.465 0 0 1-3.491.819 30.429 30.429 0 0 0-4.239.587c-1.05.249-2.1.52-3.151.757 1.046-.086 2.067-.368 3.114-.482a33.511 33.511 0 0 1 4.372-.122c1.441.031 2.807-.362 4.23-.443.891-.05 1.775-.139 2.656-.237l.041-.224a20.722 20.722 0 0 0-2.344.157 33.371 33.371 0 0 1-3.526.428c-.194.011-.183-.33-.012-.355a28.669 28.669 0 0 0 6.186-1.885l.125-.682c-.657.193-1.327.679-1.937.928-.665.266-1.343.516-2.024.754z" class="cls-31" transform="translate(-1062.567 -316.067)"/>
                                <path id="Path_2609" d="M1021.878 376.849c-.386.1-.781.166-1.176.232l.012.219a5.044 5.044 0 0 1 1.264-.327c.2-.01.127.293-.015.329a4.094 4.094 0 0 0-1.218.55l.018.327c1.095-.806 2.466-1.129 3.585-1.884a8.407 8.407 0 0 0-2.47.554z" class="cls-31" transform="translate(-1020.039 -360.468)"/>
                                <path id="Path_2610" d="M1030.4 398.006q1-.271 2.023-.444a6.832 6.832 0 0 0 2.19-.636 10.865 10.865 0 0 0-2.633.487 8.659 8.659 0 0 0-1.58.593z" class="cls-31" transform="translate(-1028.229 -377.888)"/>
                                <path id="Path_2611" d="M1025.72 402.847c-1.035.213-2.047.434-3.072.727-.107.031-.142-.05-.129-.142q-.182.082-.367.158l.011.2c.489-.107.972-.249 1.44-.372q1.062-.278 2.117-.571z" class="cls-31" transform="translate(-1021.264 -382.887)"/>
                                <path id="Path_2612" d="M1025.025 387.022a8.558 8.558 0 0 1 2.938-.412c.17.02.07.22-.009.281a3.884 3.884 0 0 1-.887.5l.487-.137c1.362-.382 2.663-.972 4.028-1.317a18.894 18.894 0 0 0 2.726-.61 1.55 1.55 0 0 0 .354-.185q.195-.116-.1-.065a1.483 1.483 0 0 0-.48-.008 7.727 7.727 0 0 0-1.482.342 25.394 25.394 0 0 1-2.872.55c-.73.123-1.457.283-2.192.389-.7.1-1.415.118-2.11.269a26.907 26.907 0 0 0-3.522 1.257l.021.375c.547-.234 1.053-.541 1.6-.782a8.613 8.613 0 0 1 1.5-.447z" class="cls-31" transform="translate(-1021.057 -367.863)"/>
                                <path id="Path_2613" d="M1035.871 383.949c-.813.275-1.526.76-2.362 1.016-1.7.52-3.453.952-5.19 1.374-.439.107-.9.166-1.331.284-.541.147-1.028.426-1.561.594a16.242 16.242 0 0 1-2.838.422c-.083.01-.122-.017-.135-.058l.037.665 20.521-4.486.025-.134c-1.6.25-3.222.3-4.827.556a36.074 36.074 0 0 0-4.621 1.449c-.217.066-.2-.269-.03-.316a42.985 42.985 0 0 1 4.692-1.445c1.613-.26 3.246-.329 4.85-.593l.073-.4c-1.5.668-3.248.467-4.857.693a13.282 13.282 0 0 0-2.446.379z" class="cls-31" transform="translate(-1021.519 -366.029)"/>
                                <path id="Path_2614" d="M1034.919 317.81a12.736 12.736 0 0 0-1.2.731 7.113 7.113 0 0 1-2.885.878 20.9 20.9 0 0 0-4 .908 22.917 22.917 0 0 1-3.1.823 23.148 23.148 0 0 0-3.183.631c-.5.164-1 .35-1.493.521l.043.774c.448-.079.9-.166 1.336-.271a11.5 11.5 0 0 1 2.117-.477 15.352 15.352 0 0 1 2.081.335 12.9 12.9 0 0 0 2.361-.14c1.7-.164 3.4-.434 5.1-.485 1.089-.033 2.342.375 3.385.006a.115.115 0 0 1 .117.006 6.253 6.253 0 0 1 1.489-.338c.2-.017.058.309-.1.321a6.245 6.245 0 0 0-1.475.313.179.179 0 0 1-.072.008c-.839.394-1.848.054-2.738.032a39.05 39.05 0 0 0-4.949.419c-.858.09-1.722.192-2.588.223a13.306 13.306 0 0 1-2.115-.321 8.012 8.012 0 0 0-2.671.489c-.415.094-.834.175-1.255.249l.036.658c.586-.146 1.2-.239 1.757-.359 1.233-.262 2.5-.271 3.746-.412a78.527 78.527 0 0 1 7.884-.526c.208 0 .065.318-.1.325-2.4.1-4.784.189-7.184.491-1.159.145-2.335.183-3.495.337-.568.076-1.117.222-1.676.346-.311.069-.615.126-.914.194l.042.767a10.4 10.4 0 0 1 1.86-.528c.91-.2 1.79-.5 2.7-.675 1.9-.363 3.854-.175 5.736-.612.223-.052.112.27-.043.313-1.683.462-3.429.3-5.15.556-.993.148-1.928.466-2.905.685a12.7 12.7 0 0 0-2.182.589l.055.992a15.286 15.286 0 0 0 1.732-.414 4.962 4.962 0 0 1 2.412-.319c.157.027.087.24 0 .307-1.206.98-2.842 1.227-4.05 2.2l.014.254c.586-.208 1.169-.422 1.732-.682.68-.313 1.293-.764 1.984-1.045a3.812 3.812 0 0 1 2.31-.01 6.327 6.327 0 0 0 2.861.119c.215-.05.2.184.039.25-1.657.693-3.258-.614-4.894-.09-.9.288-1.693.921-2.573 1.283-.471.194-.953.363-1.439.523l.061 1.11a23.194 23.194 0 0 1 3.638-1.275c.64-.127 1.293-.151 1.936-.242.817-.116 1.625-.3 2.436-.436 1.133-.194 2.2-.392 3.312-.671a2.484 2.484 0 0 1 1.862-.03c.055.035.032.129 0 .166a4.988 4.988 0 0 1-2.725 1.018 29.794 29.794 0 0 0-3.662 1.147c-1.687.552-3.439.925-5.162 1.394-.489.133-1.014.3-1.548.43l.014.259a.232.232 0 0 1 .182-.178 17.5 17.5 0 0 0 2.79-.479 21.309 21.309 0 0 1 2.245-.7c1.766-.376 3.529-.876 5.255-1.369a12.065 12.065 0 0 0 2.356-.966 5.793 5.793 0 0 1 2.2-.529c.878-.088 1.743-.229 2.624-.267a10.242 10.242 0 0 0 3.134-.482l.086-.465c-.46.118-.9.287-1.364.432a9.816 9.816 0 0 1-2.323.3c-.689.049-1.35.165-2.031.268a2.18 2.18 0 0 1-1.46-.114c-.116-.069-.044-.208.039-.271a5.512 5.512 0 0 1 2.745-.647c1.451-.19 2.809-.745 4.229-1.032.222-.045.146.268-.011.314a30.454 30.454 0 0 1-3.8.99 8.791 8.791 0 0 0-2.771.446 2.929 2.929 0 0 0 1.242-.07 16.486 16.486 0 0 1 1.839-.242 9.966 9.966 0 0 0 2.267-.277c.495-.15.972-.335 1.468-.455l.626-3.4c-.473.023-.951 0-1.423 0a11.882 11.882 0 0 0-3.175.52 23.453 23.453 0 0 1-3.248.8c-1.185.151-2.381 0-3.574.087-.241.018-.111-.262.065-.279 1.194-.113 2.4.017 3.583-.14a27.243 27.243 0 0 0 3.435-.85 11.612 11.612 0 0 1 2.7-.461c.56-.013 1.135.033 1.7 0l.263-1.431c-.91.1-1.822.185-2.74.244-1.433.091-2.795.467-4.248.433a29.1 29.1 0 0 0-4.616.178 11.589 11.589 0 0 1-3.966.355c-.157-.033-.1-.155 0-.225a.175.175 0 0 1 .118-.071c1.529-.311 3.031-.715 4.542-1.066a30.131 30.131 0 0 1 4.073-.534 17.714 17.714 0 0 0 4.661-1.265 12.9 12.9 0 0 0 1.869-.836 4.167 4.167 0 0 1 .9-.415l.142-.77a20.027 20.027 0 0 1-5.707.647 3.744 3.744 0 0 0-1.583.25zm-9.357 10.083a6.654 6.654 0 0 0-2.592.15c-.813.382-1.66.648-2.486 1.008-.187.082-.37-.126-.145-.22.913-.38 1.831-.768 2.743-1.137a7.643 7.643 0 0 1 2.555-.109c.228-.011.095.3-.075.309zm7.282-3.53c2.689-.475 5.2-1.721 7.964-1.268.15.025.073.249-.011.3a12.891 12.891 0 0 1-3.612 1.275c-1.532.426-3.058.88-4.61 1.267a19.338 19.338 0 0 1-4.827.771 18.439 18.439 0 0 1-3.872-.66c-.145-.031-.088-.271.038-.332a.252.252 0 0 1 .141-.181 7.773 7.773 0 0 1 1.843-.329 20.585 20.585 0 0 0 2.485-.493c1.484-.325 2.982-.088 4.461-.349z" class="cls-31" transform="translate(-1018.649 -310.329)"/>
                                <path id="Path_2615" d="M1054.461 360.174a10.363 10.363 0 0 0-1.745.259 17.3 17.3 0 0 0 2.229.506 12.27 12.27 0 0 0 2.517.009 26.237 26.237 0 0 0 3.89-.812c1.36-.345 2.7-.736 4.044-1.118a24.078 24.078 0 0 0 3.251-1.011c-2.691-.344-5.244 1.071-7.9 1.406a16.824 16.824 0 0 1-2.028.053 9.9 9.9 0 0 0-2.325.317 14.2 14.2 0 0 1-1.933.391zm9.677-1.378c.948-.246 1.921-.354 2.865-.6.227-.06.184.245.008.287-.941.226-1.924.307-2.85.6-.226.072-.201-.241-.023-.283zm-3.292.848c.2-.027.1.27-.041.3a28.77 28.77 0 0 1-2.988.526c-1.061.081-2.128.01-3.188.16-.227.032-.133-.287.036-.315a19.523 19.523 0 0 1 2.573-.16 36.061 36.061 0 0 0 3.607-.511z" class="cls-31" transform="translate(-1047.068 -344.984)"/>
                                <path id="Path_2616" d="M1038.831 292.321c-.976.123-1.888.46-2.857.6a13.1 13.1 0 0 0-3.472.515 17.263 17.263 0 0 1-2.225 1.169 13.948 13.948 0 0 1-3.183.275c-1.194.042-2.3-.352-3.483-.4a10.456 10.456 0 0 0-3.434.741 11.547 11.547 0 0 1-3.064.486l.045.815a12.548 12.548 0 0 0 2.533-.463c.821-.249 1.609-.589 2.432-.825 1.934-.555 3.935 0 5.893.053.214.006.06.316-.1.325a25.216 25.216 0 0 1-3.295-.251 7.615 7.615 0 0 0-3.132.436 19.043 19.043 0 0 1-4.315 1.058l.03.549a21.855 21.855 0 0 0 3.8-.923 6.006 6.006 0 0 1 4.179-.454c.184.056-.008.358-.17.314a4.728 4.728 0 0 0-2.766.047c-.659.21-1.29.489-1.957.681a29.35 29.35 0 0 1-3.069.662l.049.878c3.22-.349 6.264-1.326 9.39-1.964 1.3-.266 2.631-.311 3.921-.572.682-.138 1.826-.523 2.451-.061.086.063.018.223-.041.273a2.7 2.7 0 0 1-1.377.524c-.736.134-1.439.351-2.163.543a24.321 24.321 0 0 1-2.4.438 12.985 12.985 0 0 0-2.411.686c-1.483.538-3.088.67-4.581 1.2a21.946 21.946 0 0 1-2.677.948l.015.28c.67-.228 1.329-.488 2.012-.678 1.062-.3 2.173-.384 3.249-.6 2.028-.406 3.882-1.276 5.929-1.559a8.664 8.664 0 0 0 3.549-1.052 4.634 4.634 0 0 1 2.051-.9c2.192-.182 4.327.011 6.427-.657l.058-.314c-.268.033-.544.04-.844.05a18.29 18.29 0 0 0-2.14.306 29.552 29.552 0 0 1-4.793.237c-.1 0-.1-.073-.07-.148a.235.235 0 0 1 .1-.219 12.724 12.724 0 0 1 4.005-.914c.815-.126 1.64-.187 2.45-.321a10.418 10.418 0 0 0 1.562-.445l.21-1.142a16.257 16.257 0 0 0-2.23.505c-.826.187-1.67.3-2.5.485-.653.144-1.314.183-1.973.3a10.731 10.731 0 0 0-2.819 1.156c-.2.1-.249-.226-.093-.305a14.5 14.5 0 0 1 2.377-1.083c.837-.247 1.753-.281 2.6-.457.82-.17 1.652-.292 2.465-.481a12.376 12.376 0 0 1 2.231-.464l.056-.3c-.132 0-.263 0-.4.008-.701.024-1.333.321-2.035.409z" class="cls-31" transform="translate(-1017.009 -289.213)"/>
                                <path id="Path_2617" d="M1028.375 290l-11.931 2.223.037.67c2.874-.068 5.482-1.3 8.2-2.009 1.225-.322 2.486-.512 3.694-.884z" class="cls-31" transform="translate(-1016.444 -287.611)"/>
                            </g>
                            <path id="Path_2618" fill="#9a4221" d="M1039.215 275.248a4.266 4.266 0 0 0 2.133 1.966l-.223 1.213.024-.132-23.3 4.932.017.314 23.224-4.923-.618 3.36.023-.126-22.455 4.827.017.314 22.378-4.817-.6 3.238-21.609 4.716.017.314 21.532-4.706-.568 3.087-20.8 4.587.017.314 20.727-4.6-.12.65a5.958 5.958 0 0 0-2.937 2.727l-17.522 3.906.026.461 20.521-4.486 3.261-17.732z" transform="translate(-1015.663 -272.402)"/>
                        </g>
                        <g id="Group_1900">
                            <path id="Path_2619" d="M917.075 282.508l-13.166-5.224-4.233-22.333 16.215 6.164z" class="cls-11" transform="translate(-899.676 -254.951)"/>
                            <g id="Group_1897" class="cls-14">
                                <path id="Path_2620" d="M999.143 361.108c0 .361-.009.723-.02 1.092a3.2 3.2 0 0 0 .78 2.065c.284.438.528.915.774 1.385l-.071-1.286c-.121-.308-.25-.608-.381-.892a18.267 18.267 0 0 1-1.082-2.364z" class="cls-11" transform="translate(-983.638 -344.579)"/>
                                <path id="Path_2621" d="M996.457 330.53a19.288 19.288 0 0 1-.8-1.762 7.894 7.894 0 0 1-.342-1.718c-.081-.584-.4-1.077-.506-1.656a5.42 5.42 0 0 0-.293-1.128 5.255 5.255 0 0 0 .186 1.551c.117.578.163 1.163.222 1.748a7.6 7.6 0 0 1 .044.923c.1-.014.227.008.249.062a1.421 1.421 0 0 0 .164.338c.04.011.067.029.067.053a8.055 8.055 0 0 0 1.2 3.31l-.092-1.669a.136.136 0 0 1-.099-.052z" class="cls-11" transform="translate(-979.74 -313.473)"/>
                                <path id="Path_2622" d="M914.722 281.575l2.353.934-.107-1.933a.219.219 0 0 1-.05-.116 6.233 6.233 0 0 0-.989-3.095 6.806 6.806 0 0 1-.919-1.834 1.752 1.752 0 0 0-.037.628c.036.328.072.655.1.983.083.852.136 1.706.222 2.557.018.176-.286.354-.3.133-.06-1.006-.152-2.012-.257-3.014a6.213 6.213 0 0 1-.108-1.271 1.449 1.449 0 0 1 .262-.578.23.23 0 0 1 .084-.179c.1-.127.345-.139.271.058l-.033.086a7.4 7.4 0 0 0 1.278 2.775 5.493 5.493 0 0 1 .356.758l-.09-1.631c-.128-.236-.262-.471-.4-.706-.345-.6-.624-1.217-1.028-1.778a2.687 2.687 0 0 1-.539-1.918c.028-.548.028-1.072.016-1.6-.012.059-.024.118-.04.177a18.889 18.889 0 0 0-.56 2.172c-.017.129-.391.113-.375 0a13.976 13.976 0 0 1 .5-1.97 5.8 5.8 0 0 0 .133-2.292c-.07-.656-.145-1.292-.275-1.94a3.172 3.172 0 0 1-.005-1.729c.038-.107.307-.066.362 0a2.878 2.878 0 0 1 .5 1.248 15.506 15.506 0 0 0 .486 1.523c.224.715.156 1.452.419 2.178.143.395.319.777.5 1.157l-.127-2.3c-.094-.3-.192-.593-.3-.886-.255-.7-.62-1.353-.872-2.05a1.364 1.364 0 0 1 .035-1.325c.063-.086.414-.032.361.04-.439.6.021 1.393.29 1.98q.221.483.415.975l-.361-6.527c-.656-.258-1.431-.362-2.1-.564a11.7 11.7 0 0 0-2.433-.518c-.111-.008-.685-.1-.474.054a1.2 1.2 0 0 0 .41.109c.191.042.387.073.575.129a1.138 1.138 0 0 1 .834.637c.007.015-.036.032-.094.043.082.066-.254.108-.332.061a14.139 14.139 0 0 0-3.107-.981 9.706 9.706 0 0 0-2.047-.481 6.072 6.072 0 0 1-1.6-.309c-.232-.088.06-.2.192-.155a11.026 11.026 0 0 0 2.174.36 11.248 11.248 0 0 1 1.6.459c.439.142.889.243 1.334.356a.928.928 0 0 1-.577-.39c-.034-.055.046-.1.087-.113a2.14 2.14 0 0 1 1.159.031c.56.113 1.129.179 1.684.313.691.168 1.356.424 2.051.57l.076.016-7.165-2.724a.46.46 0 0 1-.178.014c-.447-.128-.915-.064-1.368-.153-.515-.1-1.049-.26-1.555-.4a17.828 17.828 0 0 1-2.811-1.141c-.2-.09.157-.187.271-.136a18.936 18.936 0 0 0 3.123 1.205 13.155 13.155 0 0 0 1.772.359l.141.016-7.858-2.987 1.938 10.223a4.284 4.284 0 0 1 .446 1.82c.011.266.029.53.049.795l.037.2a9.335 9.335 0 0 0 .05-2.571c-.126-.478-.44-.874-.585-1.343a9.4 9.4 0 0 1-.154-1.018 14.315 14.315 0 0 1-.618-2.343c0-.081.382-.079.384.005a18.25 18.25 0 0 0 .639 2.458 4.968 4.968 0 0 0 .423 1.536 3.2 3.2 0 0 1 .344.968c.142.919-.172 1.826-.077 2.741a4.284 4.284 0 0 1 .035 1.9l.192 1.015c.042.012.074.033.08.063a22.978 22.978 0 0 1 .636 2.354 13.779 13.779 0 0 1 .026 1.494l.294 1.551a7.834 7.834 0 0 1 1 .13c.855.19 1.694.435 2.55.614a33.22 33.22 0 0 1 5.315 1.385c.169.066 0 .4-.169.329a45.524 45.524 0 0 0-6.2-1.631 17.958 17.958 0 0 0-2.435-.517l.035.183 3 1.189c-.056-.1-.037-.249.108-.23a10.939 10.939 0 0 1 3.323.659 3.463 3.463 0 0 0 2.071.453 13.632 13.632 0 0 1 1.849-.249c.18 0 .072.336-.077.343-1.109.058-2.137.513-3.232.082a10.524 10.524 0 0 0-1.792-.692c-.413-.084-.834-.13-1.255-.174.257.149.509.309.768.46.129.076.261.142.4.2l.6.238c.33.112.669.2 1.011.286.637.159 1.327.151 1.946.365.74.255 1.341.784 2.083 1.034.158.06.161.317.007.325zM902.26 258.01a11.722 11.722 0 0 1 2.112.2 20.824 20.824 0 0 0 2.245.6 6.378 6.378 0 0 1 1.767.407 4.551 4.551 0 0 0 1.941.2c-1.022-.2-1.954-.619-2.978-.869a13.042 13.042 0 0 1-1.376-.188 7.644 7.644 0 0 0-.91-.386 6.291 6.291 0 0 0-1.525-.115c-.229 0-.227-.173 0-.164a9.344 9.344 0 0 1 1.717.154c.6.137 1.15.366 1.766.479a42.013 42.013 0 0 0 4.092 1.045.392.392 0 0 1 .075.012c.162 0 .263.1.05.117a9.5 9.5 0 0 1-2.177.12c-.677-.1-1.261-.5-1.939-.6a9.2 9.2 0 0 1-1.848-.324 10.346 10.346 0 0 0-3.012-.5c-.23-.009-.231-.198 0-.188zm.983 5.351c-.284-1.258-1-2.371-1.1-3.674-.007-.095.376-.1.383.005.093 1.3.814 2.417 1.1 3.672.025.115-.352.136-.383-.003zm-.993-1.038c-.347-.745-.791-1.44-1.1-2.2-.019-.046.341-.1.384.005.34.823.857 1.565 1.193 2.386a24.433 24.433 0 0 1 .618 2.421 23.665 23.665 0 0 1 .68 2.319 19.458 19.458 0 0 1 .494 2.323c.007.112-.374.117-.382 0a19.82 19.82 0 0 0-.494-2.323c-.166-.872-.517-1.661-.736-2.515a13.354 13.354 0 0 0-.657-2.416zm3.564 13.152a5.035 5.035 0 0 0-.729-1.776l-.142-.274c.118.608.217 1.219.338 1.828.015.077-.36.1-.381 0a32.619 32.619 0 0 0-.706-3.36c-.044-.142.318-.154.368-.047.318.671.638 1.345 1 2a4.434 4.434 0 0 1 .636 1.635c.012.119-.368.131-.384-.006zm.083-1.754a6.038 6.038 0 0 0-1.009-1.771 13.192 13.192 0 0 1-1.01-1.678 8.319 8.319 0 0 1-.576-1.324v.011a7.73 7.73 0 0 0 .343 2.369 16.115 16.115 0 0 1 .616 1.9 22.615 22.615 0 0 1 .178 2.371c.012.122-.368.131-.382 0a17.677 17.677 0 0 0-.236-2.6c-.18-.715-.508-1.383-.7-2.095a8.862 8.862 0 0 1-.206-2.074 15.983 15.983 0 0 1-.006-2.133c.011-.1.392-.084.382 0 0 .043-.007.085-.011.128a.057.057 0 0 1 .036.045 7.675 7.675 0 0 0 1.053 3.586 20.112 20.112 0 0 1 1.891 3.221c.04.123-.331.142-.36.044zm6.536 4.926a29.11 29.11 0 0 0-3.426-.835 4.22 4.22 0 0 1-2.373-.8c-.119-.125.009-.465.161-.312a4.658 4.658 0 0 0 2.4.794c1.1.246 2.169.551 3.255.8.189.048.188.418-.017.353z" class="cls-11" transform="translate(-899.676 -254.951)"/>
                            </g>
                            <path id="Path_2623" d="M919.257 291.945l-3.414-18.045 11.88 4.5.959 17.3z" class="cls-13" transform="translate(-913.325 -270.949)"/>
                            <g id="Group_1898" class="cls-32" transform="translate(2.517 2.951)">
                                <path id="Path_2624" d="M923.3 277.014a15.8 15.8 0 0 1 4.453 1.9l-.029-.522-11.88-4.5.1.516a.134.134 0 0 1 .1-.018 16.881 16.881 0 0 1 3.063 1.273c1.352.553 2.818.848 4.193 1.351z" class="cls-13" transform="translate(-915.843 -273.9)"/>
                                <path id="Path_2625" d="M932.34 285.8a9.434 9.434 0 0 1-.978-.426l.013.009a12.777 12.777 0 0 0 3.117 1.273 5.7 5.7 0 0 1 1.317.735 4.44 4.44 0 0 0 1.916.616c1.035.181 1.95.748 2.974.912-1.5-1.119-3.56-1.615-5.309-2.207-1.002-.34-2.049-.556-3.05-.912z" class="cls-13" transform="translate(-928.946 -283.587)"/>
                                <path id="Path_2626" d="M919.971 282.482c.056.033.055.1.024.161a11.049 11.049 0 0 0 5.083 2.4c1.166.317 2.7.062 3.8.644l-.027-.487a12.548 12.548 0 0 1-2.457-.78c-.6-.2-1.231-.184-1.834-.361a5.191 5.191 0 0 1-1.322-.768c-.992-.638-2.238-.694-3.284-1.248-.966-.511-1.749-1.321-2.855-1.529l.2 1.064a.228.228 0 0 1 .035.013 8.367 8.367 0 0 0 1.328.253 5.817 5.817 0 0 1 1.309.638z" class="cls-13" transform="translate(-916.899 -279.484)"/>
                                <path id="Path_2627" d="M923.674 294.185c.388.066.781.108 1.174.149-.756-.273-1.543-.449-2.324-.723-1.037-.364-2.028-.853-3.037-1.292-.17-.074.007-.4.18-.325 1.089.469 2.138 1.03 3.267 1.395a17.387 17.387 0 0 1 2.994 1.078 12.064 12.064 0 0 1 2.27.917c.178.085-.654-.066-.812-.134a5.877 5.877 0 0 0-1.091-.341c-.026.061-.082.093-.164.04-.059-.038-.119-.074-.179-.109-.549-.1-1.108-.152-1.665-.225a33.545 33.545 0 0 1 3.262 1.093c.955.315 2.017.448 2.962.815l-.152-2.745a4.631 4.631 0 0 0-2.132-.42 10.483 10.483 0 0 1-2.285-.4c-1.752-.493-3.687-1.106-4.895-2.536a.117.117 0 0 1-.01-.015 3.584 3.584 0 0 0-1.484-.6 3.383 3.383 0 0 1-.724-.135l.682 3.6a.218.218 0 0 1 .024.012 5.364 5.364 0 0 0 2.353.594c.604.07 1.187.206 1.786.307z" class="cls-13" transform="translate(-918.362 -287.215)"/>
                                <path id="Path_2628" d="M955.818 324.373c.08.048.16.1.24.149a10.745 10.745 0 0 0 2.342 1.078 10.668 10.668 0 0 1 1.869.813 6.435 6.435 0 0 0 1.545.8l-.059-1.058c-.916-.373-1.968-.486-2.9-.778-1.019-.313-2.006-.727-3.037-1.004z" class="cls-13" transform="translate(-949.594 -316.514)"/>
                                <path id="Path_2629" d="M935.6 356.56a7.915 7.915 0 0 0-2.2-.675 3.953 3.953 0 0 1-1.281-.37 5.646 5.646 0 0 0-.935-.561l.154.816a8.517 8.517 0 0 0 1.973.306c.777.103 1.522.336 2.289.484z" class="cls-13" transform="translate(-928.792 -342.333)"/>
                                <path id="Path_2630" d="M962.145 368.85a1.15 1.15 0 0 0-1.071.237c-.22.178-.239.264-.594.243-.045 0-.089-.01-.133-.016a4.918 4.918 0 0 0 .646.263 2.914 2.914 0 0 0 1.566-.028 1.407 1.407 0 0 1 .576-.008 3.47 3.47 0 0 0 1.1.268 7.253 7.253 0 0 1 .8 0 3.28 3.28 0 0 1 .9.257l-.016-.3c-.93-.282-1.889-.462-2.836-.7-.31-.066-.62-.166-.938-.216z" class="cls-13" transform="translate(-953.417 -354.035)"/>
                                <path id="Path_2631" d="M925.593 321.575a5.974 5.974 0 0 0 2.341.737 6.978 6.978 0 0 1 2.214 1 .225.225 0 0 1 .093.14.945.945 0 0 1 .438-.084 7.184 7.184 0 0 1 1.627.314c.883.213 1.775.387 2.651.621l-.052-.938a17.545 17.545 0 0 0-2.554-1.083 7.2 7.2 0 0 1-1.71-.594c-.537-.32-.956-.783-1.511-1.085-.122-.066-.047-.263.066-.32a.156.156 0 0 1 .161-.119c1.521.194 2.844 1.078 4.341 1.371.272.053.583.1.893.177-.789-.424-1.672-.523-2.523-.884a23.213 23.213 0 0 0-2.876-1.317c-.964-.269-1.837-.734-2.788-1.038a6.616 6.616 0 0 1-2.109-.927c-.159-.122-.077-.443.117-.292a12.158 12.158 0 0 0 2.884 1.2c.925.4 1.878.627 2.807.986a28.7 28.7 0 0 0 2.7 1.3 9.393 9.393 0 0 1 2 .709l-.081-1.466a4.488 4.488 0 0 1-1.3-.6 11.379 11.379 0 0 0-2.441-1.094 7.715 7.715 0 0 1-1.46-.564 18.3 18.3 0 0 0-3.586-1.437c-.195-.035 1.4.01 1.566.025a.2.2 0 0 1 .148-.093l-.071-.013a16.643 16.643 0 0 1-3.875-.806l.522 2.757c.02-.116.113-.217.215-.126a10.119 10.119 0 0 0 2.583 1.241c.312.138 1.7.565 1.719 1.035s-1.252 0-1.456-.049a28.225 28.225 0 0 1-2.818-.82l.331 1.75a.139.139 0 0 1 .087-.01 1.886 1.886 0 0 1 .707.396z" class="cls-13" transform="translate(-922.473 -308.939)"/>
                                <path id="Path_2632" d="M942.669 367.276a12.436 12.436 0 0 1-3.483-1.7c-.086-.075-.085-.324.079-.287.627.14 1.214.418 1.851.511.493.072.986.054 1.477.1l-.041-.744c-.068-.029-.137-.058-.207-.085a3.408 3.408 0 0 0-1.415-.164c-.627.022-1.14-.332-1.747-.244a3.158 3.158 0 0 1-1.617.006c-.834-.271-2.644-1.275-3.43-1.656a4.852 4.852 0 0 1 1.1.153l.04.014h.008c.373.121.723.292 1.093.415a1.742 1.742 0 0 0 .772.145c.167-.036.143-.085.255-.173l.143-.113a25.273 25.273 0 0 1-2.6-.5 20.963 20.963 0 0 1-2.318-.347l.361 1.909a.1.1 0 0 1 .143-.02c.476.352 2.319.571 2.038 1.472-.106.341-.6.426-.907.467a5.532 5.532 0 0 1-.9.033l.07.372 9.425 3.755zm-.17 2.513a15.583 15.583 0 0 0-3.967-2.047 7.265 7.265 0 0 1-2.839-1.84c-.064-.085-.418-.492-.246-.442 1.2.35 2.6 1.187 3.792 1.56a17.27 17.27 0 0 1 3.315 1.188c.17.095-.069.367-.22.29a21.134 21.134 0 0 0-3.149-1.168c-.983-.319-1.894-.852-2.867-1.2a12.078 12.078 0 0 0 2.807 1.558 13.53 13.53 0 0 1 3.565 1.868c.168.162-.017.392-.19.234z" class="cls-13" transform="translate(-930.014 -348.79)"/>
                                <path id="Path_2633" d="M962.9 348.884c.135.107.267.218.407.328a6.552 6.552 0 0 0 2.437 1.083 16.571 16.571 0 0 1 2.24.986l-.053-.95c-.591-.18-1.3-.227-1.753-.335-1.124-.272-2.142-.853-3.278-1.112z" class="cls-13" transform="translate(-955.576 -337.208)"/>
                                <path id="Path_2634" d="M929.539 335.566c.451.123.9.244 1.36.344l.039.006c-.224-.117-.455-.27-.654-.359-.41-.184-.825-.356-1.24-.531a6.866 6.866 0 0 1-1.781-.864.145.145 0 0 1-.022-.024l.15.795a.2.2 0 0 1 .1.014c.662.253 1.363.431 2.048.619z" class="cls-13" transform="translate(-925.466 -324.759)"/>
                            </g>
                            <g id="Group_1899" transform="translate(2.517 2.951)">
                                <path id="Path_2635" d="M928.657 295.246l-7.7-3.071a2.737 2.737 0 0 0-1.534-1.944l-.29-1.531.064.341 9.22 3.762a2.811 2.811 0 0 0-2.4 1.391l2.639 1.052-.133-2.453-.015-.272-9.374-3.825-.676-3.574.059.311 9.821 4.014-.018-.325-9.869-4.035-.667-3.529.015.077 10.341 4.237-.018-.325-10.389-4.258-.656-3.47v.013l10.862 4.464-.018-.325-10.91-4.484-.166-.876a3.407 3.407 0 0 0 1.622-1.717l-2.625-.993 3.415 18.045 9.425 3.756z" class="cls-15" transform="translate(-915.843 -273.9)"/>
                                <path id="Path_2636" fill="#953b16" d="M976.838 300.167l-.18-3.251-2.856-1.081a7.5 7.5 0 0 0 3.036 4.332z" transform="translate(-964.777 -292.42)" style="mix-blend-mode:multiply;isolation:isolate" opacity="0.5"/>
                            </g>
                        </g>
                        <g id="Group_1903">
                            <g id="Group_1901">
                                <path id="Path_2637" d="M899.676 254.951l1.172 6.186s3.951-.5 4.241-4.128z" class="cls-35" transform="translate(-899.676 -254.951)"/>
                                <path id="Path_2638" d="M905.839 261.452a4.146 4.146 0 0 0 2.111-3.356l-4.886-1.857z" class="cls-36" transform="translate(-902.537 -256.038)"/>
                            </g>
                            <g id="Group_1902" transform="translate(1.289 1.93)">
                                <path id="Path_2639" d="M909.586 268.044a.629.629 0 0 1-.408.81.678.678 0 0 1-.8-.482.629.629 0 0 1 .409-.81.678.678 0 0 1 .799.482z" class="cls-37" transform="translate(-908.283 -267.51)"/>
                                <path id="Path_2640" d="M909.158 267.834a.61.61 0 0 1-.4.786.657.657 0 0 1-.778-.467.61.61 0 0 1 .4-.786.657.657 0 0 1 .778.467z" class="cls-11" transform="translate(-907.953 -267.346)"/>
                                <path id="Path_2641" d="M909.109 269.093c-.01.195-.127.346-.262.338s-.237-.173-.227-.368.127-.346.262-.338.237.175.227.368z" class="cls-38" transform="translate(-908.515 -268.509)"/>
                            </g>
                        </g>
                        <g id="Group_1906" transform="translate(3.472 18.32)">
                            <g id="Group_1904">
                                <path id="Path_2642" d="M922.737 376.619l3.718 1.475a6.041 6.041 0 0 0-4.479-5.489z" class="cls-35" transform="translate(-921.976 -372.605)"/>
                                <path id="Path_2643" d="M929.053 378.822l1.912.759a6.128 6.128 0 0 0-3.647-5.215c.082.216 1.735 4.456 1.735 4.456z" class="cls-36" transform="translate(-926.486 -374.092)"/>
                            </g>
                            <g id="Group_1905" transform="translate(1.059 2.199)">
                                <path id="Path_2644" d="M930.227 387.332a.567.567 0 0 1-.362.726.591.591 0 0 1-.711-.417.567.567 0 0 1 .362-.726.591.591 0 0 1 .711.417z" class="cls-37" transform="translate(-929.072 -386.868)"/>
                                <path id="Path_2645" d="M929.847 387.153a.55.55 0 0 1-.351.7.573.573 0 0 1-.69-.4.55.55 0 0 1 .351-.7.573.573 0 0 1 .69.4z" class="cls-11" transform="translate(-928.78 -386.728)"/>
                                <path id="Path_2646" d="M929.8 388.3c-.008.173-.112.309-.232.3s-.21-.151-.2-.324.113-.31.232-.3.212.148.2.324z" class="cls-38" transform="translate(-929.278 -387.779)"/>
                            </g>
                        </g>
                        <g id="Group_1909" transform="translate(11.332 4.307)">
                            <g id="Group_1907">
                                <path id="Path_2647" d="M977.334 284.471l.29 5.247s-5.174-1.942-5.174-7.1z" class="cls-35" transform="translate(-972.451 -282.614)"/>
                                <path id="Path_2648" d="M985.391 292.3a9.168 9.168 0 0 0 1.958 1.115l-.29-5.247-3.09-1.175z" class="cls-36" transform="translate(-982.176 -286.311)"/>
                            </g>
                            <g id="Group_1908" transform="translate(2.565 2.33)">
                                <path id="Path_2649" d="M990.588 298.292a.653.653 0 0 1-.417.838.689.689 0 0 1-.819-.494.652.652 0 0 1 .417-.838.688.688 0 0 1 .819.494z" class="cls-37" transform="translate(-989.258 -297.745)"/>
                                <path id="Path_2650" d="M990.152 298.078a.633.633 0 0 1-.4.812.667.667 0 0 1-.795-.479.633.633 0 0 1 .4-.812.668.668 0 0 1 .795.479z" class="cls-11" transform="translate(-988.922 -297.577)"/>
                                <path id="Path_2651" d="M990.1 299.384c-.01.2-.13.358-.268.35s-.242-.178-.232-.379.13-.358.268-.35.243.177.232.379z" class="cls-38" transform="translate(-989.495 -298.782)"/>
                            </g>
                        </g>
                        <g id="Group_1913" transform="translate(16.215 5.126)">
                            <g id="Group_1911">
                                <path id="Path_2652" d="M1003.814 288.907l.29 5.247s5.03-1.075 5.331-6.286z" class="cls-4" transform="translate(-1003.814 -287.869)"/>
                                <g id="Group_1910" transform="translate(.283 .266)">
                                    <path id="Path_2653" d="M1008.833 290.406l-.659.122c-.844 1.878-1.713 3.748-2.539 5.64l.007.129a6.884 6.884 0 0 0 1.268-.45z" class="cls-5" transform="translate(-1005.634 -290.277)"/>
                                    <path id="Path_2654" d="M1018.822 289.578l-.291.054-1.892 5.3c.193-.1.395-.22.6-.353z" class="cls-5" transform="translate(-1014.925 -289.578)"/>
                                </g>
                            </g>
                            <g id="Group_1912" transform="translate(1.279 1.723)">
                                <path id="Path_2655" d="M1012.029 299.849a.679.679 0 0 0 .574.744.634.634 0 0 0 .661-.629.68.68 0 0 0-.574-.743.634.634 0 0 0-.661.628z" class="cls-37" transform="translate(-1012.028 -299.173)"/>
                                <path id="Path_2656" d="M1012.572 299.546a.659.659 0 0 0 .557.721.615.615 0 0 0 .641-.61.659.659 0 0 0-.556-.721.615.615 0 0 0-.642.61z" class="cls-39" transform="translate(-1012.486 -298.934)"/>
                                <path id="Path_2657" d="M1016.381 300.526c.053.195.2.326.327.293s.188-.217.135-.411-.2-.326-.327-.294-.188.217-.135.412z" class="cls-40" transform="translate(-1015.687 -299.926)"/>
                            </g>
                        </g>
                        <g id="Group_1917" transform="translate(17.074 21.68)">
                            <g id="Group_1915">
                                <path id="Path_2658" d="M1009.654 400.066l5.432-1.2s-.44-4.385-5.757-4.681z" class="cls-4" transform="translate(-1009.329 -394.189)"/>
                                <g id="Group_1914" transform="translate(.306 .519)">
                                    <path id="Path_2659" d="M1015.011 398.491a5.462 5.462 0 0 0-1.577-.971l-2.143 5 .02.355 2.085-.459z" class="cls-5" transform="translate(-1011.292 -397.52)"/>
                                    <path id="Path_2660" d="M1029.259 405.54c-.1-.123-.211-.246-.331-.366l-1.43 3.615.819-.18z" class="cls-5" transform="translate(-1024.975 -403.982)"/>
                                </g>
                            </g>
                            <g id="Group_1916" transform="translate(1.303 2.923)">
                                <path id="Path_2661" d="M1017.7 413.858a.641.641 0 0 0 .551.706.62.62 0 0 0 .634-.613.641.641 0 0 0-.55-.706.62.62 0 0 0-.635.613z" class="cls-37" transform="translate(-1017.696 -413.199)"/>
                                <path id="Path_2662" d="M1018.219 413.56a.621.621 0 0 0 .534.684.6.6 0 0 0 .615-.595.622.622 0 0 0-.534-.684.6.6 0 0 0-.615.595z" class="cls-39" transform="translate(-1018.136 -412.964)"/>
                                <path id="Path_2663" d="M1021.874 414.478c.051.186.192.31.314.277s.18-.211.13-.4-.191-.31-.314-.277-.181.214-.13.4z" class="cls-40" transform="translate(-1021.208 -413.902)"/>
                            </g>
                        </g>
                        <g id="Group_1921" transform="translate(36.593 17.379)">
                            <g id="Group_1919">
                                <path id="Path_2664" d="M1139.33 371.493l.905-4.929a6.986 6.986 0 0 0-5.549 5.952z" class="cls-4" transform="translate(-1134.686 -366.564)"/>
                                <g id="Group_1918" transform="translate(.865)">
                                    <path id="Path_2665" d="M1144.565 367.056a6.687 6.687 0 0 0-.922.31l-3.4 5.374 1.052-.232z" class="cls-5" transform="translate(-1140.243 -366.979)"/>
                                    <path id="Path_2666" d="M1152.8 368.316l.322-1.753h-.016c.016 0-3.156 5.426-3.156 5.426l.838-.185z" class="cls-5" transform="translate(-1148.44 -366.564)"/>
                                </g>
                            </g>
                            <g id="Group_1920" transform="translate(3.183 3.048)">
                                <path id="Path_2667" d="M1155.134 386.834a.551.551 0 0 0 .426.645.538.538 0 0 0 .6-.478.551.551 0 0 0-.425-.645.538.538 0 0 0-.601.478z" class="cls-37" transform="translate(-1155.126 -386.318)"/>
                                <path id="Path_2668" d="M1155.616 386.611a.535.535 0 0 0 .413.625.522.522 0 0 0 .579-.463.534.534 0 0 0-.412-.625.522.522 0 0 0-.58.463z" class="cls-39" transform="translate(-1155.534 -386.142)"/>
                                <path id="Path_2669" d="M1158.879 387.517c.03.163.143.28.252.26s.172-.167.142-.33-.143-.28-.252-.26-.172.167-.142.33z" class="cls-40" transform="translate(-1158.288 -387.022)"/>
                            </g>
                        </g>
                        <g id="Group_1925" transform="translate(39.767 .814)">
                            <g id="Group_1923">
                                <path id="Path_2670" d="M1160.487 260.176l-5.416 1s.036 3.342 4.47 4.152z" class="cls-4" transform="translate(-1155.071 -260.176)"/>
                                <g id="Group_1922" transform="translate(.808 .033)">
                                    <path id="Path_2671" d="M1163.8 261.447l-1.423.263-2.113 2.661a4.491 4.491 0 0 0 .895.9z" class="cls-5" transform="translate(-1160.263 -261.282)"/>
                                    <path id="Path_2672" d="M1171.128 260.386l-.543.1-2.7 4.089a5.575 5.575 0 0 0 .706.386z" class="cls-5" transform="translate(-1166.698 -260.386)"/>
                                </g>
                            </g>
                            <g id="Group_1924" transform="translate(3.081 1.534)">
                                <path id="Path_2673" d="M1174.868 270.7a.56.56 0 0 0 .424.65.526.526 0 0 0 .594-.467.56.56 0 0 0-.423-.649.526.526 0 0 0-.595.466z" class="cls-37" transform="translate(-1174.861 -270.196)"/>
                                <path id="Path_2674" d="M1175.348 270.486a.542.542 0 0 0 .411.63.51.51 0 0 0 .576-.453.542.542 0 0 0-.41-.63.51.51 0 0 0-.577.453z" class="cls-39" transform="translate(-1175.266 -270.026)"/>
                                <path id="Path_2675" d="M1178.593 271.413c.03.163.142.281.25.264s.172-.164.141-.327-.142-.281-.251-.264-.17.164-.14.327z" class="cls-40" transform="translate(-1178.006 -270.919)"/>
                            </g>
                        </g>
                        <g id="Group_1928" transform="translate(12.423 21.676)">
                            <g id="Group_1926">
                                <path id="Path_2676" d="M984.438 400.04l-4.952-1.837s-.635-4.205 4.626-4.04z" class="cls-35" transform="translate(-979.463 -394.158)"/>
                                <path id="Path_2677" d="M991.075 399.479l1.512.561-.325-5.877a5.424 5.424 0 0 0-3.147.685z" class="cls-36" transform="translate(-987.612 -394.159)"/>
                            </g>
                            <g id="Group_1927" transform="translate(2.799 2.91)">
                                <path id="Path_2678" d="M998.8 413.806a.6.6 0 0 1-.61.579.59.59 0 0 1-.531-.647.6.6 0 0 1 .611-.579.59.59 0 0 1 .53.647z" class="cls-37" transform="translate(-997.626 -413.11)"/>
                                <path id="Path_2679" d="M998.545 413.478a.58.58 0 0 1-.592.561.572.572 0 0 1-.514-.627.58.58 0 0 1 .592-.562.572.572 0 0 1 .514.628z" class="cls-11" transform="translate(-997.437 -412.85)"/>
                                <path id="Path_2680" d="M998.581 414.141c-.071.165-.22.261-.333.215s-.147-.217-.076-.383.22-.261.333-.215.147.218.076.383z" class="cls-38" transform="translate(-998.027 -413.607)"/>
                            </g>
                        </g>
                    </g>
                    <g id="Group_1932" transform="translate(28.473 3.602)">
                        <g id="Group_1930" transform="translate(0 .059)" style="mix-blend-mode:multiply;isolation:isolate" opacity="0.5">
                            <path id="Path_2681" d="M1088.158 278.618c.88 2.1-2.71 5.429-5.48 2.034-.343-.42.018-1.594.435-1.1a4.014 4.014 0 0 0 1.74 1.422c1.586.307 2.946-.936 2.651-1.642-.136-.332.438-1.232.654-.714z" class="cls-30" transform="translate(-1082.542 -278.462)"/>
                        </g>
                        <g id="Group_1931" transform="translate(.137)">
                            <path id="Path_2682" d="M1089.028 278.206c1.376 1.631-1.746 4.258-5.389 1.693-.451-.317-.149-1.172.4-.8a5.113 5.113 0 0 0 2.1.94c1.737.164 2.8-.733 2.334-1.281-.218-.258.217-.952.555-.552z" class="cls-4" transform="translate(-1083.42 -278.085)"/>
                        </g>
                        <path id="Path_2683" d="M1107.4 281.163a1.577 1.577 0 0 1-2.254 1.769c.754.037 2.313-.332 2.254-1.769z" class="cls-5" transform="translate(-1101.624 -280.684)"/>
                    </g>
                </g>
            </g>
        </g>
    </g>
</svg>
