<svg xmlns="http://www.w3.org/2000/svg" width="70" height="70" viewBox="0 0 87 87">
    <defs>
        <linearGradient id="linear-gradient" x2="1" y1=".5" y2=".5" gradientUnits="objectBoundingBox">
            <stop offset="0" stop-color="#cbb251"/>
            <stop offset=".11" stop-color="#cbb251"/>
            <stop offset=".205" stop-color="#b58106"/>
            <stop offset=".252" stop-color="#a87805"/>
            <stop offset=".503" stop-color="#a86f05"/>
            <stop offset=".623" stop-color="#c9b04f"/>
            <stop offset=".707" stop-color="#cbb251"/>
            <stop offset=".764" stop-color="#c9b04f"/>
            <stop offset=".819" stop-color="#a67500"/>
            <stop offset=".924" stop-color="#a87805"/>
            <stop offset="1" stop-color="#cbb251"/>
        </linearGradient>
        <linearGradient id="linear-gradient-2" x2="1" y1=".5" y2=".5" gradientUnits="objectBoundingBox">
            <stop offset=".319" stop-color="#dea638"/>
            <stop offset=".382" stop-color="#e1aa3a"/>
            <stop offset=".449" stop-color="#e9b642"/>
            <stop offset=".484" stop-color="#f1c148"/>
            <stop offset=".561" stop-color="#fadb58"/>
            <stop offset=".881" stop-color="#fff2a8"/>
        </linearGradient>
        <style>
            .cls-2{fill:url(#linear-gradient)}.cls-3{fill:url(#linear-gradient-2)}.cls-4{fill:#fff}
        </style>
    </defs>
    <g id="Gold" transform="translate(-7256 -1527)">
        <circle id="Ellipse_147" cx="43.5" cy="43.5" r="43.5" fill="#272733" opacity="0.65" transform="translate(7256 1527)"/>
        <g id="Group_1700" transform="translate(7090.5 1329.716)">
            <g id="Group_1736" transform="translate(183.547 216.992)">
                <g id="Group_1696" transform="translate(22.263 33.353)">
                    <path id="Path_2118" d="M727.037 1038.841v1.42c0 .536 3.864.971 8.631.971s8.631-.435 8.631-.971v-1.42z" class="cls-2" transform="translate(-727.037 -1037.87)"/>
                    <ellipse id="Ellipse_149" cx="8.631" cy=".971" class="cls-3" rx="8.631" ry=".971"/>
                </g>
                <g id="Group_1697" transform="translate(20.505 31.933)">
                    <path id="Path_2119" d="M686.459 1006.069v1.42c0 .536 3.864.971 8.631.971s8.631-.435 8.631-.971v-1.42z" class="cls-2" transform="translate(-686.459 -1005.098)"/>
                    <ellipse id="Ellipse_150" cx="8.631" cy=".971" class="cls-3" rx="8.631" ry=".971"/>
                </g>
                <g id="Group_1698" transform="translate(20.505 30.253)">
                    <path id="Path_2120" d="M686.459 967.279v1.42c0 .536 3.864.971 8.631.971s8.631-.435 8.631-.971v-1.42z" class="cls-2" transform="translate(-686.459 -966.308)"/>
                    <ellipse id="Ellipse_151" cx="8.631" cy=".971" class="cls-3" rx="8.631" ry=".971"/>
                </g>
                <g id="Group_1699" transform="translate(20.505 28.572)">
                    <path id="Path_2121" d="M686.459 928.488v1.42c0 .536 3.864.971 8.631.971s8.631-.435 8.631-.971v-1.42z" class="cls-2" transform="translate(-686.459 -927.517)"/>
                    <ellipse id="Ellipse_152" cx="8.631" cy=".971" class="cls-3" rx="8.631" ry=".971"/>
                </g>
                <g id="Group_1700-2" transform="translate(20.505 26.891)">
                    <path id="Path_2122" d="M686.459 889.7v1.42c0 .536 3.864.971 8.631.971s8.631-.435 8.631-.971v-1.42z" class="cls-2" transform="translate(-686.459 -888.727)"/>
                    <ellipse id="Ellipse_153" cx="8.631" cy=".971" class="cls-3" rx="8.631" ry=".971"/>
                </g>
                <g id="Group_1701" transform="translate(20.505 25.21)">
                    <path id="Path_2123" d="M686.459 850.908v1.42c0 .536 3.864.971 8.631.971s8.631-.435 8.631-.971v-1.42z" class="cls-2" transform="translate(-686.459 -849.937)"/>
                    <ellipse id="Ellipse_154" cx="8.631" cy=".971" class="cls-3" rx="8.631" ry=".971"/>
                </g>
                <g id="Group_1702" transform="translate(20.505 23.53)">
                    <path id="Path_2124" d="M686.459 812.117v1.42c0 .536 3.864.971 8.631.971s8.631-.435 8.631-.971v-1.42z" class="cls-2" transform="translate(-686.459 -811.146)"/>
                    <ellipse id="Ellipse_155" cx="8.631" cy=".971" class="cls-3" rx="8.631" ry=".971"/>
                </g>
                <g id="Group_1703" transform="translate(20.505 21.849)">
                    <path id="Path_2125" d="M686.459 773.327v1.42c0 .536 3.864.971 8.631.971s8.631-.435 8.631-.971v-1.42z" class="cls-2" transform="translate(-686.459 -772.356)"/>
                    <ellipse id="Ellipse_156" cx="8.631" cy=".971" class="cls-3" rx="8.631" ry=".971"/>
                </g>
                <g id="Group_1704" transform="translate(20.505 20.168)">
                    <path id="Path_2126" d="M686.459 734.537v1.42c0 .536 3.864.971 8.631.971s8.631-.435 8.631-.971v-1.42z" class="cls-2" transform="translate(-686.459 -733.566)"/>
                    <ellipse id="Ellipse_157" cx="8.631" cy=".971" class="cls-3" rx="8.631" ry=".971"/>
                </g>
                <g id="Group_1705" transform="translate(20.505 18.488)">
                    <path id="Path_2127" d="M686.459 695.746v1.42c0 .536 3.864.971 8.631.971s8.631-.435 8.631-.971v-1.42z" class="cls-2" transform="translate(-686.459 -694.775)"/>
                    <ellipse id="Ellipse_158" cx="8.631" cy=".971" class="cls-3" rx="8.631" ry=".971"/>
                </g>
                <g id="Group_1706" transform="translate(20.505 16.807)">
                    <path id="Path_2128" d="M686.459 656.956v1.42c0 .536 3.864.971 8.631.971s8.631-.435 8.631-.971v-1.42z" class="cls-2" transform="translate(-686.459 -655.985)"/>
                    <ellipse id="Ellipse_159" cx="8.631" cy=".971" class="cls-3" rx="8.631" ry=".971"/>
                </g>
                <g id="Group_1707" transform="translate(20.505 15.126)">
                    <path id="Path_2129" d="M686.459 618.166v1.42c0 .536 3.864.971 8.631.971s8.631-.435 8.631-.971v-1.42z" class="cls-2" transform="translate(-686.459 -617.195)"/>
                    <ellipse id="Ellipse_160" cx="8.631" cy=".971" class="cls-3" rx="8.631" ry=".971"/>
                </g>
                <g id="Group_1708" transform="translate(20.505 13.446)">
                    <path id="Path_2130" d="M686.459 579.375v1.42c0 .536 3.864.971 8.631.971s8.631-.435 8.631-.971v-1.42z" class="cls-2" transform="translate(-686.459 -578.404)"/>
                    <ellipse id="Ellipse_161" cx="8.631" cy=".971" class="cls-3" rx="8.631" ry=".971"/>
                </g>
                <g id="Group_1709" transform="translate(20.505 11.765)">
                    <path id="Path_2131" d="M686.459 540.585V542c0 .536 3.864.971 8.631.971s8.631-.435 8.631-.971v-1.42z" class="cls-2" transform="translate(-686.459 -539.614)"/>
                    <ellipse id="Ellipse_162" cx="8.631" cy=".971" class="cls-3" rx="8.631" ry=".971"/>
                </g>
                <g id="Group_1710" transform="translate(20.505 10.084)">
                    <path id="Path_2132" d="M686.459 501.795v1.42c0 .536 3.864.971 8.631.971s8.631-.435 8.631-.971v-1.42z" class="cls-2" transform="translate(-686.459 -500.824)"/>
                    <ellipse id="Ellipse_163" cx="8.631" cy=".971" class="cls-3" rx="8.631" ry=".971"/>
                </g>
                <g id="Group_1711" transform="translate(20.505 8.403)">
                    <path id="Path_2133" d="M686.459 463.005v1.42c0 .536 3.864.971 8.631.971s8.631-.435 8.631-.971v-1.42z" class="cls-2" transform="translate(-686.459 -462.034)"/>
                    <ellipse id="Ellipse_164" cx="8.631" cy=".971" class="cls-3" rx="8.631" ry=".971"/>
                </g>
                <g id="Group_1712" transform="translate(20.505 6.723)">
                    <path id="Path_2134" d="M686.459 424.214v1.42c0 .536 3.864.971 8.631.971s8.631-.435 8.631-.971v-1.42z" class="cls-2" transform="translate(-686.459 -423.243)"/>
                    <ellipse id="Ellipse_165" cx="8.631" cy=".971" class="cls-3" rx="8.631" ry=".971"/>
                </g>
                <g id="Group_1713" transform="translate(20.505 5.042)">
                    <path id="Path_2135" d="M686.459 385.424v1.42c0 .536 3.864.971 8.631.971s8.631-.435 8.631-.971v-1.42z" class="cls-2" transform="translate(-686.459 -384.453)"/>
                    <ellipse id="Ellipse_166" cx="8.631" cy=".971" class="cls-3" rx="8.631" ry=".971"/>
                </g>
                <g id="Group_1714" transform="translate(20.505 3.361)">
                    <path id="Path_2136" d="M686.459 346.634v1.42c0 .536 3.864.971 8.631.971s8.631-.435 8.631-.971v-1.42z" class="cls-2" transform="translate(-686.459 -345.663)"/>
                    <ellipse id="Ellipse_167" cx="8.631" cy=".971" class="cls-3" rx="8.631" ry=".971"/>
                </g>
                <g id="Group_1715" transform="translate(20.505 1.681)">
                    <path id="Path_2137" d="M686.459 307.843v1.42c0 .536 3.864.971 8.631.971s8.631-.435 8.631-.971v-1.42z" class="cls-2" transform="translate(-686.459 -306.872)"/>
                    <ellipse id="Ellipse_168" cx="8.631" cy=".971" class="cls-3" rx="8.631" ry=".971"/>
                </g>
                <g id="Group_1716" transform="translate(20.505)">
                    <path id="Path_2138" d="M686.459 269.053v1.42c0 .536 3.864.971 8.631.971s8.631-.435 8.631-.971v-1.42z" class="cls-2" transform="translate(-686.459 -268.082)"/>
                    <ellipse id="Ellipse_169" cx="8.631" cy=".971" class="cls-3" rx="8.631" ry=".971"/>
                </g>
                <g id="Group_1717" transform="translate(0 35.483)">
                    <path id="Path_2139" d="M213.2 1088v1.42c0 .536 3.864.971 8.631.971s8.631-.435 8.631-.971V1088z" class="cls-2" transform="translate(-213.204 -1087.028)"/>
                    <ellipse id="Ellipse_170" cx="8.631" cy=".971" class="cls-3" rx="8.631" ry=".971"/>
                </g>
                <g id="Group_1718" transform="translate(1.144 34.063)">
                    <path id="Path_2140" d="M239.6 1055.227v1.42c0 .536 3.864.971 8.631.971s8.631-.435 8.631-.971v-1.42z" class="cls-2" transform="translate(-239.604 -1054.256)"/>
                    <ellipse id="Ellipse_171" cx="8.631" cy=".971" class="cls-3" rx="8.631" ry=".971"/>
                </g>
                <g id="Group_1719" transform="translate(2.148 32.382)">
                    <path id="Path_2141" d="M262.778 1016.437v1.42c0 .536 3.864.971 8.631.971s8.631-.435 8.631-.971v-1.42z" class="cls-2" transform="translate(-262.778 -1015.466)"/>
                    <ellipse id="Ellipse_172" cx="8.631" cy=".971" class="cls-3" rx="8.631" ry=".971"/>
                </g>
                <g id="Group_1720" transform="translate(2.148 30.702)">
                    <path id="Path_2142" d="M262.778 977.647v1.42c0 .536 3.864.971 8.631.971s8.631-.435 8.631-.971v-1.42z" class="cls-2" transform="translate(-262.778 -976.676)"/>
                    <ellipse id="Ellipse_173" cx="8.631" cy=".971" class="cls-3" rx="8.631" ry=".971"/>
                </g>
                <g id="Group_1721" transform="translate(2.148 29.021)">
                    <path id="Path_2143" d="M262.778 938.856v1.42c0 .536 3.864.971 8.631.971s8.631-.435 8.631-.971v-1.42z" class="cls-2" transform="translate(-262.778 -937.885)"/>
                    <ellipse id="Ellipse_174" cx="8.631" cy=".971" class="cls-3" rx="8.631" ry=".971"/>
                </g>
                <g id="Group_1722" transform="translate(2.148 27.34)">
                    <path id="Path_2144" d="M262.778 900.066v1.42c0 .536 3.864.971 8.631.971s8.631-.435 8.631-.971v-1.42z" class="cls-2" transform="translate(-262.778 -899.095)"/>
                    <ellipse id="Ellipse_175" cx="8.631" cy=".971" class="cls-3" rx="8.631" ry=".971"/>
                </g>
                <g id="Group_1723" transform="translate(2.148 25.66)">
                    <path id="Path_2145" d="M262.778 861.276v1.42c0 .536 3.864.971 8.631.971s8.631-.435 8.631-.971v-1.42z" class="cls-2" transform="translate(-262.778 -860.305)"/>
                    <ellipse id="Ellipse_176" cx="8.631" cy=".971" class="cls-3" rx="8.631" ry=".971"/>
                </g>
                <g id="Group_1724" transform="translate(.39 24.24)">
                    <path id="Path_2146" d="M222.2 828.5v1.42c0 .536 3.864.971 8.631.971s8.631-.435 8.631-.971v-1.42z" class="cls-2" transform="translate(-222.199 -827.533)"/>
                    <ellipse id="Ellipse_177" cx="8.631" cy=".971" class="cls-3" rx="8.631" ry=".971"/>
                </g>
                <g id="Group_1725" transform="translate(.39 22.559)">
                    <path id="Path_2147" d="M222.2 789.713v1.42c0 .536 3.864.971 8.631.971s8.631-.435 8.631-.971v-1.42z" class="cls-2" transform="translate(-222.199 -788.742)"/>
                    <ellipse id="Ellipse_178" cx="8.631" cy=".971" class="cls-3" rx="8.631" ry=".971"/>
                </g>
                <g id="Group_1726" transform="translate(.39 20.878)">
                    <path id="Path_2148" d="M222.2 750.923v1.42c0 .536 3.864.971 8.631.971s8.631-.435 8.631-.971v-1.42z" class="cls-2" transform="translate(-222.199 -749.952)"/>
                    <ellipse id="Ellipse_179" cx="8.631" cy=".971" class="cls-3" rx="8.631" ry=".971"/>
                </g>
                <g id="Group_1727" transform="translate(.39 19.198)">
                    <path id="Path_2149" d="M222.2 712.133v1.42c0 .536 3.864.971 8.631.971s8.631-.435 8.631-.971v-1.42z" class="cls-2" transform="translate(-222.199 -711.162)"/>
                    <ellipse id="Ellipse_180" cx="8.631" cy=".971" class="cls-3" rx="8.631" ry=".971"/>
                </g>
                <g id="Group_1728" transform="translate(.39 17.517)">
                    <path id="Path_2150" d="M222.2 673.342v1.42c0 .536 3.864.971 8.631.971s8.631-.435 8.631-.971v-1.42z" class="cls-2" transform="translate(-222.199 -672.371)"/>
                    <ellipse id="Ellipse_181" cx="8.631" cy=".971" class="cls-3" rx="8.631" ry=".971"/>
                </g>
                <g id="Group_1729" transform="translate(15.502 39.366)">
                    <path id="Path_2151" d="M571 1177.616v1.42c0 .536 3.864.971 8.631.971s8.631-.435 8.631-.971v-1.42z" class="cls-2" transform="translate(-570.999 -1176.645)"/>
                    <ellipse id="Ellipse_182" cx="8.631" cy=".971" class="cls-3" rx="8.631" ry=".971"/>
                </g>
                <g id="Group_1730" transform="translate(33.377 37.236)">
                    <path id="Path_2152" d="M983.538 1128.458v1.42c0 .536 3.864.971 8.631.971s8.631-.435 8.631-.971v-1.42z" class="cls-2" transform="translate(-983.538 -1127.487)"/>
                    <ellipse id="Ellipse_183" cx="8.631" cy=".971" class="cls-3" rx="8.631" ry=".971"/>
                </g>
                <g id="Group_1731" transform="translate(13.744 37.946)">
                    <path id="Path_2153" d="M530.421 1144.844v1.42c0 .536 3.864.971 8.631.971s8.631-.435 8.631-.971v-1.42z" class="cls-2" transform="translate(-530.421 -1143.873)"/>
                    <ellipse id="Ellipse_184" cx="8.631" cy=".971" class="cls-3" rx="8.631" ry=".971"/>
                </g>
                <g id="Group_1732" transform="translate(13.744 36.265)">
                    <path id="Path_2154" d="M530.421 1106.054v1.42c0 .536 3.864.971 8.631.971s8.631-.435 8.631-.971v-1.42z" class="cls-2" transform="translate(-530.421 -1105.083)"/>
                    <ellipse id="Ellipse_185" cx="8.631" cy=".971" class="cls-3" rx="8.631" ry=".971"/>
                </g>
                <g id="Group_1733" transform="translate(13.744 34.585)">
                    <path id="Path_2155" d="M530.421 1067.264v1.42c0 .536 3.864.971 8.631.971s8.631-.435 8.631-.971v-1.42z" class="cls-2" transform="translate(-530.421 -1066.293)"/>
                    <ellipse id="Ellipse_186" cx="8.631" cy=".971" class="cls-3" rx="8.631" ry=".971"/>
                </g>
                <g id="Group_1734" transform="translate(13.744 32.904)">
                    <path id="Path_2156" d="M530.421 1028.473v1.42c0 .536 3.864.971 8.631.971s8.631-.435 8.631-.971v-1.42z" class="cls-2" transform="translate(-530.421 -1027.502)"/>
                    <ellipse id="Ellipse_187" cx="8.631" cy=".971" class="cls-3" rx="8.631" ry=".971"/>
                </g>
                <g id="Group_1735" transform="translate(13.744 31.223)">
                    <path id="Path_2157" d="M530.421 989.683v1.42c0 .536 3.864.971 8.631.971s8.631-.435 8.631-.971v-1.42z" class="cls-2" transform="translate(-530.421 -988.712)"/>
                    <ellipse id="Ellipse_188" cx="8.631" cy=".971" class="cls-3" rx="8.631" ry=".971"/>
                </g>
            </g>
            <g id="Group_1737" transform="translate(182.204 215.649)">
                <path id="Path_2158" d="M212.683 216.992c4.767 0 8.631.435 8.631.971v1.42a.148.148 0 0 0 0 .261v1.42a.148.148 0 0 0 0 .261v1.42a.148.148 0 0 0 0 .261v1.42a.148.148 0 0 0 0 .261v1.42a.148.148 0 0 0 0 .261v1.42a.148.148 0 0 0 0 .261v1.42a.148.148 0 0 0 0 .261v1.42a.148.148 0 0 0 0 .261v1.42a.148.148 0 0 0 0 .261v1.42a.148.148 0 0 0 0 .261v1.42a.148.148 0 0 0 0 .261v1.42a.148.148 0 0 0 0 .261v1.42a.148.148 0 0 0 0 .261v1.42a.148.148 0 0 0 0 .261v1.42a.148.148 0 0 0 0 .261v1.42a.148.148 0 0 0 0 .261v1.42a.148.148 0 0 0 0 .261v1.42a.148.148 0 0 0 0 .261v1.42a.148.148 0 0 0 0 .261v.833c1.1.163 1.758.367 1.758.587v1.42c0 .532-3.8.964-8.519.971v.261a.148.148 0 0 0 0 .261v1.42a.148.148 0 0 0 0 .261v.833c1.1.163 1.758.366 1.758.587v1.42c0 .536-3.864.971-8.631.971s-8.631-.435-8.631-.971v-.833c-1.1-.163-1.758-.367-1.758-.587v-1.42a.148.148 0 0 0 0-.261c-1.431.119-3.2.189-5.113.189-4.767 0-8.631-.435-8.631-.971v-1.42c0-.176.416-.341 1.144-.483v-.937c0-.164.363-.319 1-.455v-1.226a.148.148 0 0 0 0-.261v-1.42a.148.148 0 0 0 0-.261v-1.42a.148.148 0 0 0 0-.261V245.3a.148.148 0 0 0 0-.261v-.833c-1.1-.163-1.758-.367-1.758-.587V242.2a.148.148 0 0 0 0-.261v-1.42a.148.148 0 0 0 0-.261v-1.42a.148.148 0 0 0 0-.261v-1.42a.148.148 0 0 0 0-.261v-1.42c0-.536 3.864-.971 8.631-.971s8.631.435 8.631.971v1.42a.148.148 0 0 0 0 .261v1.42a.148.148 0 0 0 0 .261v1.42a.148.148 0 0 0 0 .261v1.42a.148.148 0 0 0 0 .261v.833c1.1.163 1.758.367 1.758.587v1.42a.148.148 0 0 0 0 .261v1.42a.148.148 0 0 0 0 .261v1.29c.355-.015.721-.027 1.1-.036v-.023a.148.148 0 0 0 0-.261v-1.42a.148.148 0 0 0 0-.261v-1.42a.148.148 0 0 0 0-.261v-1.42a.148.148 0 0 0 0-.261v-1.42a.148.148 0 0 0 0-.261v-1.42a.148.148 0 0 0 0-.261v-1.42a.148.148 0 0 0 0-.261v-1.42a.148.148 0 0 0 0-.261v-1.42a.148.148 0 0 0 0-.261v-1.42a.148.148 0 0 0 0-.261v-1.42a.148.148 0 0 0 0-.261v-1.42a.148.148 0 0 0 0-.261v-1.42a.148.148 0 0 0 0-.261v-1.42a.148.148 0 0 0 0-.261v-1.42a.148.148 0 0 0 0-.261V223a.148.148 0 0 0 0-.261v-1.42a.148.148 0 0 0 0-.261v-1.42a.148.148 0 0 0 0-.261v-1.42c0-.536 3.864-.971 8.631-.971m0-1.343a58.993 58.993 0 0 0-6.253.293 14.808 14.808 0 0 0-2.045.345 3.586 3.586 0 0 0-.8.3 1.549 1.549 0 0 0-.872 1.373v1.42q0 .066.006.13t-.006.13v1.42q0 .066.006.13t-.006.13v1.42q0 .066.006.13t-.006.13v1.42q0 .066.006.13t-.006.13v1.42q0 .066.006.13t-.006.13v1.42q0 .066.006.13t-.006.13v1.42q0 .066.006.13t-.006.13v1.42q0 .066.006.13t-.006.13v1.42q0 .066.006.13t-.006.13v1.42q0 .066.006.13t-.006.13v1.42q0 .066.006.13t-.006.13v1.42q0 .066.006.13t-.006.13v1.42q0 .066.006.13t-.006.13v1.42q0 .066.006.13t-.006.13v.477l-.167-.045v-1.4q0-.066-.006-.13t.006-.13v-1.42q0-.066-.006-.13t.006-.13v-1.42q0-.066-.006-.13t.006-.13v-1.42a1.549 1.549 0 0 0-.872-1.373 3.586 3.586 0 0 0-.8-.3 14.809 14.809 0 0 0-2.045-.345 66.933 66.933 0 0 0-12.506 0 14.808 14.808 0 0 0-2.045.345 3.586 3.586 0 0 0-.8.3 1.549 1.549 0 0 0-.872 1.373v1.42q0 .066.006.13t-.006.13v1.42q0 .066.006.13t-.006.13v1.42q0 .066.006.13t-.006.13v1.42q0 .066.006.13t-.006.13v1.42a1.534 1.534 0 0 0 .716 1.278 2.733 2.733 0 0 0 .675.314c.112.037.234.072.368.105v1.4q0 .066.006.13t-.006.13v1.42q0 .066.006.13t-.006.13v1.42q0 .066.006.13t-.006.13v.241a1.589 1.589 0 0 0-1 1.357l-.02.008a1.607 1.607 0 0 0-1.127 1.495v1.42a1.549 1.549 0 0 0 .872 1.373 3.586 3.586 0 0 0 .8.3 14.8 14.8 0 0 0 2.045.345 59.009 59.009 0 0 0 6.253.293c1.32 0 2.6-.033 3.77-.1v.244a1.534 1.534 0 0 0 .716 1.278 2.732 2.732 0 0 0 .675.314q.18.059.4.113a1.58 1.58 0 0 0 .843 1.088 3.588 3.588 0 0 0 .8.3 14.793 14.793 0 0 0 2.045.345 66.926 66.926 0 0 0 12.506 0 14.8 14.8 0 0 0 2.045-.345 3.588 3.588 0 0 0 .8-.3 1.55 1.55 0 0 0 .872-1.373v-1.42a1.534 1.534 0 0 0-.716-1.278 2.73 2.73 0 0 0-.675-.314q-.168-.055-.368-.105v-.6c1.822-.034 3.5-.132 4.836-.284a14.545 14.545 0 0 0 2.019-.344 3.54 3.54 0 0 0 .8-.3 1.548 1.548 0 0 0 .865-1.369v-1.42a1.534 1.534 0 0 0-.716-1.278 2.728 2.728 0 0 0-.675-.314c-.112-.037-.234-.072-.368-.105v-1.4q0-.066-.006-.13t.006-.13v-1.42q0-.066-.006-.13t.006-.13v-1.42q0-.066-.006-.13t.006-.13v-1.42q0-.066-.006-.13t.006-.13v-1.42q0-.066-.006-.13t.006-.13v-1.42q0-.066-.006-.13t.006-.13v-1.42q0-.066-.006-.13t.006-.13v-1.42q0-.066-.006-.13t.006-.13v-1.42q0-.066-.006-.13t.006-.13v-1.42q0-.066-.006-.13t.006-.13v-1.42q0-.066-.006-.13t.006-.13v-1.42q0-.066-.006-.13t.006-.13v-1.42q0-.066-.006-.13t.006-.13v-1.42q0-.066-.006-.13t.006-.13v-1.42q0-.066-.006-.13t.006-.13V223q0-.066-.006-.13t.006-.13v-1.42q0-.066-.006-.13t.006-.13v-1.42q0-.066-.006-.13t.006-.13v-1.42a1.549 1.549 0 0 0-.872-1.373 3.586 3.586 0 0 0-.8-.3 14.809 14.809 0 0 0-2.045-.345 58.993 58.993 0 0 0-6.253-.293z" class="cls-4" transform="translate(-182.204 -215.649)"/>
                <path id="Path_2159" d="M962.512 1076.4c4.767 0 8.631.435 8.631.971v1.42c0 .536-3.864.971-8.631.971s-8.631-.435-8.631-.971v-1.42c0-.536 3.864-.971 8.631-.971m0-1.343a59.01 59.01 0 0 0-6.253.293 14.79 14.79 0 0 0-2.045.345 3.575 3.575 0 0 0-.8.3 1.55 1.55 0 0 0-.871 1.373v1.42a1.549 1.549 0 0 0 .871 1.373 3.58 3.58 0 0 0 .8.3 14.787 14.787 0 0 0 2.045.345 66.934 66.934 0 0 0 12.506 0 14.786 14.786 0 0 0 2.045-.345 3.579 3.579 0 0 0 .8-.3 1.55 1.55 0 0 0 .872-1.373v-1.42a1.55 1.55 0 0 0-.872-1.373 3.573 3.573 0 0 0-.8-.3 14.786 14.786 0 0 0-2.045-.345 59.009 59.009 0 0 0-6.253-.293z" class="cls-4" transform="translate(-919.161 -1037.818)"/>
            </g>
        </g>
    </g>
</svg>
