<svg xmlns="http://www.w3.org/2000/svg" xmlns:xlink="http://www.w3.org/1999/xlink" width="70" height="70" viewBox="0 0 87 87">
    <defs>
        <linearGradient id="linear-gradient" x1=".415" x2=".795" y1=".139" y2=".523" xlink:href="#radial-gradient"/>
        <linearGradient id="linear-gradient-2" x1=".817" x2=".354" y1=".902" y2=".118" xlink:href="#radial-gradient"/>
        <linearGradient id="linear-gradient-3" x1="0" x2="1" y1=".5" y2=".5" xlink:href="#radial-gradient"/>
        <linearGradient id="linear-gradient-5" x1="-68.504" x2="-67.504" y1=".5" y2=".5" xlink:href="#radial-gradient"/>
        <linearGradient id="linear-gradient-7" x1="1" x2="0" y1=".5" y2=".5" xlink:href="#radial-gradient"/>
        <linearGradient id="linear-gradient-9" x1="-53.07" x2="-54.07" y1=".5" y2=".5" xlink:href="#radial-gradient"/>
        <linearGradient id="linear-gradient-13" x1="-109.475" x2="-108.475" y1=".5" y2=".5" xlink:href="#radial-gradient"/>
        <radialGradient id="radial-gradient" cx=".253" cy=".03" r=".621" gradientTransform="matrix(1.276 0 0 1 -.138 0)" gradientUnits="objectBoundingBox">
            <stop offset="0" stop-color="#fff"/>
            <stop offset="1"/>
        </radialGradient>
        <style>
            .cls-10,.cls-11,.cls-12,.cls-13,.cls-14,.cls-16,.cls-8,.cls-9{mix-blend-mode:soft-light;isolation:isolate}.cls-8{fill:url(#linear-gradient-3)}.cls-9{fill:url(#linear-gradient-5)}.cls-10{fill:url(#linear-gradient-7)}.cls-11{fill:url(#linear-gradient-9)}.cls-12{fill:url(#linear-gradient-13)}.cls-13,.cls-16{opacity:.5}.cls-14,.cls-16{fill:#fff}
        </style>
    </defs>
    <g id="Helmet" transform="translate(-15476 -942)">
        <circle id="Ellipse_287" cx="43.5" cy="43.5" r="43.5" fill="#272733" opacity="0.65" transform="translate(15476 942)"/>
        <g id="Group_1936" transform="translate(-1016 10) translate(15922.356 648.435)">
            <g id="Group_1946">
                <g id="Group_1944" transform="translate(594.751 302.105)">
                    <path id="Path_2684" fill="gray" d="M625.369 352.282l9.567-8.292c-2.551-3.4-1.488-14.032-3.827-25.938-2.3-11.69-13.829-11.9-14.246-11.906h-.013c-.417 0-11.936.216-14.232 11.906-2.339 11.906-1.276 22.536-3.827 25.938l9.567 8.292-.638-9.78s-4.677-10.63-4.465-11.481-.213-6.166 0-6.591l1.276-2.551s5.528 1.7 6.166 1.913 6.166 2.977 6.166 2.977 5.528-2.764 6.166-2.977 6.166-1.913 6.166-1.913l1.276 2.551c.213.425-.213 5.741 0 6.591s-4.465 11.481-4.465 11.481z" transform="translate(-598.792 -306.146)"/>
                    <path id="Path_2685" d="M625.369 352.282l9.567-8.292c-2.551-3.4-1.488-14.032-3.827-25.938-2.3-11.69-13.829-11.9-14.246-11.906h-.013c-.417 0-11.936.216-14.232 11.906-2.339 11.906-1.276 22.536-3.827 25.938l9.567 8.292-.638-9.78s-4.677-10.63-4.465-11.481-.213-6.166 0-6.591l1.276-2.551s5.528 1.7 6.166 1.913 6.166 2.977 6.166 2.977 5.528-2.764 6.166-2.977 6.166-1.913 6.166-1.913l1.276 2.551c.213.425-.213 5.741 0 6.591s-4.465 11.481-4.465 11.481z" transform="translate(-598.792 -306.146)" style="mix-blend-mode:soft-light;isolation:isolate" fill="url(#radial-gradient)"/>
                    <path id="Path_2686" fill="#ffd34d" d="M620.214 367.855a4.167 4.167 0 0 0 2.059-2.717 1.987 1.987 0 0 0-.051-1.23 2.5 2.5 0 0 0-.657-.8 31.4 31.4 0 0 0-9.558-5.938 27.582 27.582 0 0 0 .654 4.521 4.562 4.562 0 0 0 .4 1.192 4.978 4.978 0 0 0 1.312 1.375l2.56 2.072a1.263 1.263 0 0 1 .412.466c.2.5-.259.99-.575 1.426a5.773 5.773 0 0 0-.651 3.846 146.768 146.768 0 0 0 3.377 18.488 21.173 21.173 0 0 1-3.93-4.848 1.5 1.5 0 0 1-.248-.631 1.846 1.846 0 0 1 .1-.589c.553-2.147-1.607-9.468-2.553-11.474l-3.7-7.841a1.218 1.218 0 0 1-.155-.519 1.434 1.434 0 0 1 .232-.625 6.6 6.6 0 0 0 .267-4.528 32.008 32.008 0 0 1-1.023-4.514 16.271 16.271 0 0 1 1.324-6.562 12.606 12.606 0 0 0 7.194 6.618 3.111 3.111 0 0 0 1.686.223 3.233 3.233 0 0 0 1.482-.957 17.711 17.711 0 0 0 4.5-7.5v25.531c.009-.087-3.68-3.572-4.458-4.485z" transform="translate(-606.609 -339.013)"/>
                    <path id="Path_2687" d="M620.214 367.855a4.167 4.167 0 0 0 2.059-2.717 1.987 1.987 0 0 0-.051-1.23 2.5 2.5 0 0 0-.657-.8 31.4 31.4 0 0 0-9.558-5.938 27.582 27.582 0 0 0 .654 4.521 4.562 4.562 0 0 0 .4 1.192 4.978 4.978 0 0 0 1.312 1.375l2.56 2.072a1.263 1.263 0 0 1 .412.466c.2.5-.259.99-.575 1.426a5.773 5.773 0 0 0-.651 3.846 146.768 146.768 0 0 0 3.377 18.488 21.173 21.173 0 0 1-3.93-4.848 1.5 1.5 0 0 1-.248-.631 1.846 1.846 0 0 1 .1-.589c.553-2.147-1.607-9.468-2.553-11.474l-3.7-7.841a1.218 1.218 0 0 1-.155-.519 1.434 1.434 0 0 1 .232-.625 6.6 6.6 0 0 0 .267-4.528 32.008 32.008 0 0 1-1.023-4.514 16.271 16.271 0 0 1 1.324-6.562 12.606 12.606 0 0 0 7.194 6.618 3.111 3.111 0 0 0 1.686.223 3.233 3.233 0 0 0 1.482-.957 17.711 17.711 0 0 0 4.5-7.5v25.531c.009-.087-3.68-3.572-4.458-4.485z" transform="translate(-606.609 -339.013)" style="mix-blend-mode:soft-light;isolation:isolate" fill="url(#linear-gradient)"/>
                    <path id="Path_2688" fill="#e5b130" d="M697.436 367.855a4.166 4.166 0 0 1-2.059-2.717 1.985 1.985 0 0 1 .051-1.23 2.5 2.5 0 0 1 .657-.8 31.4 31.4 0 0 1 9.558-5.938 27.536 27.536 0 0 1-.654 4.521 4.553 4.553 0 0 1-.4 1.192 4.976 4.976 0 0 1-1.311 1.375l-2.56 2.072a1.266 1.266 0 0 0-.412.466c-.2.5.259.99.575 1.426a5.775 5.775 0 0 1 .651 3.846 146.812 146.812 0 0 1-3.377 18.488 21.173 21.173 0 0 0 3.929-4.848 1.5 1.5 0 0 0 .248-.631 1.846 1.846 0 0 0-.1-.589c-.552-2.147 1.607-9.468 2.553-11.474l3.7-7.841a1.217 1.217 0 0 0 .155-.519 1.431 1.431 0 0 0-.232-.625 6.605 6.605 0 0 1-.267-4.528 31.982 31.982 0 0 0 1.023-4.514 16.269 16.269 0 0 0-1.323-6.562 12.607 12.607 0 0 1-7.194 6.618 3.11 3.11 0 0 1-1.686.223 3.232 3.232 0 0 1-1.482-.957 17.709 17.709 0 0 1-4.5-7.5v25.531c-.01-.087 3.679-3.572 4.457-4.485z" transform="translate(-674.897 -339.013)"/>
                    <path id="Path_2689" d="M697.436 367.855a4.166 4.166 0 0 1-2.059-2.717 1.985 1.985 0 0 1 .051-1.23 2.5 2.5 0 0 1 .657-.8 31.4 31.4 0 0 1 9.558-5.938 27.536 27.536 0 0 1-.654 4.521 4.553 4.553 0 0 1-.4 1.192 4.976 4.976 0 0 1-1.311 1.375l-2.56 2.072a1.266 1.266 0 0 0-.412.466c-.2.5.259.99.575 1.426a5.775 5.775 0 0 1 .651 3.846 146.812 146.812 0 0 1-3.377 18.488 21.173 21.173 0 0 0 3.929-4.848 1.5 1.5 0 0 0 .248-.631 1.846 1.846 0 0 0-.1-.589c-.552-2.147 1.607-9.468 2.553-11.474l3.7-7.841a1.217 1.217 0 0 0 .155-.519 1.431 1.431 0 0 0-.232-.625 6.605 6.605 0 0 1-.267-4.528 31.982 31.982 0 0 0 1.023-4.514 16.269 16.269 0 0 0-1.323-6.562 12.607 12.607 0 0 1-7.194 6.618 3.11 3.11 0 0 1-1.686.223 3.232 3.232 0 0 1-1.482-.957 17.709 17.709 0 0 1-4.5-7.5v25.531c-.01-.087 3.679-3.572 4.457-4.485z" transform="translate(-674.897 -339.013)" style="mix-blend-mode:soft-light;isolation:isolate" fill="url(#linear-gradient-2)"/>
                    <g id="Group_1938" transform="translate(25.673 17.983)">
                        <path id="Path_2690" d="M732.584 409.588s3.109-2.445 3.721-3.109 1.435-3.455 1.462-6.485l.8-.133s-.4 4.863-1.86 6.7a25.367 25.367 0 0 1-4.123 3.027z" class="cls-8" transform="translate(-732.584 -399.861)"/>
                        <path id="Path_2691" d="M732.584 409.588s3.109-2.445 3.721-3.109 1.435-3.455 1.462-6.485l.8-.133s-.4 4.863-1.86 6.7a25.367 25.367 0 0 1-4.123 3.027z" class="cls-8" transform="translate(-732.584 -399.861)"/>
                    </g>
                    <g id="Group_1939" transform="translate(4.409 17.983)">
                        <path id="Path_2692" d="M627.75 409.588s-3.109-2.445-3.721-3.109-1.435-3.455-1.462-6.485l-.8-.133s.4 4.863 1.86 6.7a25.361 25.361 0 0 0 4.123 3.027z" class="cls-9" transform="translate(-621.77 -399.861)"/>
                        <path id="Path_2693" d="M627.75 409.588s-3.109-2.445-3.721-3.109-1.435-3.455-1.462-6.485l-.8-.133s.4 4.863 1.86 6.7a25.361 25.361 0 0 0 4.123 3.027z" class="cls-9" transform="translate(-621.77 -399.861)"/>
                    </g>
                    <g id="Group_1940" transform="translate(3.04 9.703)">
                        <path id="Path_2694" d="M622.32 363.3a13 13 0 0 1-7.543-6.585l-.145.551s2.495 5.134 7.688 6.034z" class="cls-10" transform="translate(-614.632 -356.713)"/>
                        <path id="Path_2695" d="M622.32 363.3a13 13 0 0 1-7.543-6.585l-.145.551s2.495 5.134 7.688 6.034z" class="cls-10" transform="translate(-614.632 -356.713)"/>
                    </g>
                    <g id="Group_1941" transform="translate(25.366 9.703)">
                        <path id="Path_2696" d="M730.981 363.3a13 13 0 0 0 7.543-6.585l.145.551s-2.495 5.134-7.688 6.034z" class="cls-11" transform="translate(-730.981 -356.713)"/>
                        <path id="Path_2697" d="M730.981 363.3a13 13 0 0 0 7.543-6.585l.145.551s-2.495 5.134-7.688 6.034z" class="cls-11" transform="translate(-730.981 -356.713)"/>
                    </g>
                    <g id="Group_1942" transform="translate(23.565 28.968)">
                        <path id="Path_2698" d="M724.211 457.106s.964.886.68 3.614-2.055 14.316-3.3 18.355l.531-.567s2.87-14.67 3.118-17.647c.006.001.346-3.223-1.029-3.755z" class="cls-8" transform="translate(-721.596 -457.106)"/>
                        <path id="Path_2699" d="M724.211 457.106s.964.886.68 3.614-2.055 14.316-3.3 18.355l.531-.567s2.87-14.67 3.118-17.647c.006.001.346-3.223-1.029-3.755z" class="cls-8" transform="translate(-721.596 -457.106)"/>
                    </g>
                    <g id="Group_1943" transform="translate(8.928 29.207)">
                        <path id="Path_2700" d="M646.391 458.353s-.964.886-.68 3.614 2.055 14.315 3.3 18.355l-.531-.567s-2.87-14.67-3.118-17.647c-.006.001-.346-3.223 1.029-3.755z" class="cls-12" transform="translate(-645.319 -458.353)"/>
                        <path id="Path_2701" d="M646.391 458.353s-.964.886-.68 3.614 2.055 14.315 3.3 18.355l-.531-.567s-2.87-14.67-3.118-17.647c-.006.001-.346-3.223 1.029-3.755z" class="cls-12" transform="translate(-645.319 -458.353)"/>
                    </g>
                    <path id="Path_2702" d="M747.966 442.761s-6.244 11.125-6.206 18.465l3.292-2.838s-1.286-5.827 3.141-14.946v-1.135z" class="cls-13" transform="translate(-714.326 -416.179)"/>
                    <path id="Path_2703" d="M610.915 442.761s6.243 11.125 6.206 18.465l-3.292-2.838s1.286-5.827-3.141-14.946v-1.135z" class="cls-13" transform="translate(-608.405 -416.179)"/>
                    <path id="Path_2704" d="M695.217 349.736s2 6.085 5.736 7.732a6.424 6.424 0 0 0 3.518-1.236 5.285 5.285 0 0 1-3.422.063c-1.649-.633-4.755-3.58-5.832-6.559z" class="cls-13" transform="translate(-676.714 -341.372)"/>
                    <path id="Path_2705" d="M652.2 350.059s-2 6.085-5.736 7.732a6.424 6.424 0 0 1-3.518-1.236 5.286 5.286 0 0 0 3.423.063c1.644-.633 4.749-3.58 5.831-6.559z" class="cls-13" transform="translate(-634.47 -341.633)"/>
                    <path id="Path_2706" d="M728.646 319a7.862 7.862 0 0 1 .9 1.063 8.893 8.893 0 0 1 .688 1.289q.59 1.284 1.1 2.6a1.431 1.431 0 0 1 .143.781 1.347 1.347 0 0 1-.214.456 9.781 9.781 0 0 1-1.811 2.085 4.815 4.815 0 0 0 .069-3.038 1.7 1.7 0 0 1-.136-.818 3.175 3.175 0 0 1 .141-.4 2.638 2.638 0 0 0-.112-1.541 4.328 4.328 0 0 0-1.616-2.683 17.189 17.189 0 0 0-4.119-3.085c.448.212.981.288 1.445.518a6.757 6.757 0 0 1 .875.5 18.354 18.354 0 0 1 2.647 2.273z" class="cls-13" transform="translate(-699.717 -313.872)"/>
                    <path id="Path_2707" d="M628.389 317.28a7.852 7.852 0 0 0-.713.792 10.8 10.8 0 0 0-2.157 4.271 12.266 12.266 0 0 1 .9-1.118.972.972 0 0 1 .382-.295.352.352 0 0 1 .426.136.62.62 0 0 1 .041.237 2.843 2.843 0 0 0 .887 1.631 2.143 2.143 0 0 0 1.612.892 4.224 4.224 0 0 1-1.024-5 8.03 8.03 0 0 1 .469-.815 28.56 28.56 0 0 1 3.392-3.362 12.976 12.976 0 0 0-1.454.58 11.22 11.22 0 0 0-2.761 2.051z" class="cls-14" transform="translate(-620.39 -313.021)"/>
                    <path id="Path_2708" d="M681.4 359.316v-8.345a18.377 18.377 0 0 1-2.617 5.216l.921-.982c.214-.228.526-.476.8-.331.217.114.26.4.276.645l.582 8.6.009-.315z" class="cls-14" transform="translate(-663.431 -342.37)"/>
                    <path id="Path_2709" fill="#fff" d="M681.4 359.316v-8.345a18.377 18.377 0 0 1-2.617 5.216l.921-.982c.214-.228.526-.476.8-.331.217.114.26.4.276.645l.582 8.6.009-.315z" transform="translate(-663.431 -342.37)" style="mix-blend-mode:soft-light;isolation:isolate" opacity="0.6"/>
                    <path id="Path_2710" d="M612.7 420.262a2.659 2.659 0 0 0-.285.716.678.678 0 0 0 .25.685l.085-.244a2.465 2.465 0 0 1 .9.363l2.19 1.244a3.961 3.961 0 0 1-1.673-1.771 6.945 6.945 0 0 1-.64-2.379 7.023 7.023 0 0 0-.4-2.214 6.447 6.447 0 0 1-.427 3.6z" class="cls-14" transform="translate(-609.79 -395.454)"/>
                    <path id="Path_2711" d="M612.7 420.262a2.659 2.659 0 0 0-.285.716.678.678 0 0 0 .25.685l.085-.244a2.465 2.465 0 0 1 .9.363l2.19 1.244a3.961 3.961 0 0 1-1.673-1.771 6.945 6.945 0 0 1-.64-2.379 7.023 7.023 0 0 0-.4-2.214 6.447 6.447 0 0 1-.427 3.6z" class="cls-16" transform="translate(-609.79 -395.454)"/>
                    <path id="Path_2712" d="M610.828 368.228a.858.858 0 0 1 .068.481.879.879 0 0 1-.162.285 2.559 2.559 0 0 0-.595 1.937 1.136 1.136 0 0 1-.434-.822 9.8 9.8 0 0 1-.051-2.936c.058-.481.144-.959.247-1.433a5 5 0 0 1 .37-1.38c.178.148.062.609.062.823a9.609 9.609 0 0 0 .495 3.045z" class="cls-16" transform="translate(-607.5 -353.189)"/>
                    <path id="Path_2713" d="M758 443.941a.259.259 0 0 0-.061.137.288.288 0 0 0 .057.152 3.741 3.741 0 0 1 .479 2.564c0-.19.284-.557.371-.73l.4-.788.8-1.576c.1-.187.738-1.117.363-1.251-.2-.071-1 .457-1.2.559a3.242 3.242 0 0 0-1.209.933z" class="cls-13" transform="translate(-727.4 -416.289)"/>
                    <path id="Path_2714" d="M693.331 426.9v7.817c.165-.151 2.313-2.374 3.214-3.353a1.73 1.73 0 0 1-2.235-1.775c-.386-1.688-.749-3.376-1.058-5.08z" class="cls-13" transform="translate(-675.125 -401.8)"/>
                </g>
            </g>
            <path id="Path_2716" fill="#fff" d="M612.823 302.105c.405 0 11.311.205 14.031 10.952a12.1 12.1 0 0 0 .836-1.538 16.266 16.266 0 0 1 1.323 6.562 20.506 20.506 0 0 1-.808 3.661c.906 8.568.71 15.566 2.69 18.207l-8.81 7.635a1.846 1.846 0 0 1 .1.588 1.5 1.5 0 0 1-.248.631 21.172 21.172 0 0 1-3.93 4.848 146.8 146.8 0 0 0 3.377-18.488 5.775 5.775 0 0 0-.651-3.846c-.316-.437-.78-.928-.575-1.426a1.265 1.265 0 0 1 .412-.466l2.56-2.072a4.976 4.976 0 0 0 1.311-1.375 4.556 4.556 0 0 0 .4-1.192 27.555 27.555 0 0 0 .654-4.521 31.4 31.4 0 0 0-9.558 5.938 2.5 2.5 0 0 0-.657.8 1.985 1.985 0 0 0-.051 1.23 4.167 4.167 0 0 0 2.059 2.717c-.777.911-4.448 4.38-4.466 4.492-.018-.112-3.69-3.581-4.466-4.492a4.167 4.167 0 0 0 2.059-2.717 1.987 1.987 0 0 0-.051-1.23 2.5 2.5 0 0 0-.657-.8 31.4 31.4 0 0 0-9.558-5.938 27.581 27.581 0 0 0 .654 4.521 4.56 4.56 0 0 0 .4 1.192 4.977 4.977 0 0 0 1.312 1.375l2.56 2.072a1.262 1.262 0 0 1 .412.466c.2.5-.259.99-.575 1.426a5.774 5.774 0 0 0-.651 3.846 146.757 146.757 0 0 0 3.377 18.488 21.17 21.17 0 0 1-3.93-4.848 1.5 1.5 0 0 1-.248-.631 1.841 1.841 0 0 1 .1-.588l-8.81-7.635c1.981-2.641 1.784-9.639 2.69-18.207a20.512 20.512 0 0 1-.808-3.661 16.268 16.268 0 0 1 1.324-6.562 12.1 12.1 0 0 0 .836 1.538c2.719-10.747 13.612-10.948 14.017-10.952h.013m-.014-.959h-.008c-.459 0-10.6.215-14.275 9.6a.959.959 0 0 0-.568-.187h-.041a.96.96 0 0 0-.864.641 13.093 13.093 0 0 0-.706 10.174l.123.445c-.248 2.383-.416 4.675-.564 6.7-.375 5.131-.671 9.184-1.921 10.851a.959.959 0 0 0 .139 1.3l8.387 7.269a1.829 1.829 0 0 0 0 .3 2.389 2.389 0 0 0 .379 1.048 22.064 22.064 0 0 0 4.108 5.068.959.959 0 0 0 1.578-.946 146.278 146.278 0 0 1-3.35-18.32 4.983 4.983 0 0 1 .472-3.214c.039-.055.081-.11.124-.166a2.185 2.185 0 0 0 .562-2.187 2.16 2.16 0 0 0-.7-.847l-1.707-1.381-.853-.691a4.265 4.265 0 0 1-1.075-1.093 3.744 3.744 0 0 1-.309-.944 26.632 26.632 0 0 1-.489-2.8 30.233 30.233 0 0 1 7.814 5.141 1.885 1.885 0 0 1 .424.474 1.116 1.116 0 0 1-.007.633 3.191 3.191 0 0 1-1.581 2.086.959.959 0 0 0-.275 1.467c.463.542 1.776 1.826 2.934 2.959.615.6 1.307 1.278 1.478 1.465a.96.96 0 0 0 1.572 0c.177-.192.864-.864 1.474-1.461 1.159-1.132 2.472-2.416 2.935-2.959a.959.959 0 0 0-.275-1.467 3.191 3.191 0 0 1-1.578-2.083 1.118 1.118 0 0 1-.007-.633 1.885 1.885 0 0 1 .424-.474 30.236 30.236 0 0 1 7.814-5.141 26.633 26.633 0 0 1-.489 2.8 3.739 3.739 0 0 1-.309.944 4.269 4.269 0 0 1-1.075 1.093l-.853.691-1.707 1.381a2.158 2.158 0 0 0-.7.848 2.185 2.185 0 0 0 .561 2.187l.124.166a4.981 4.981 0 0 1 .472 3.214 146.312 146.312 0 0 1-3.35 18.32.959.959 0 0 0 1.577.946 22.075 22.075 0 0 0 4.108-5.068 2.393 2.393 0 0 0 .379-1.048 1.851 1.851 0 0 0 0-.3l8.387-7.269a.959.959 0 0 0 .139-1.3c-1.25-1.666-1.546-5.719-1.921-10.85-.148-2.028-.316-4.32-.564-6.7l.123-.445a13.091 13.091 0 0 0-.706-10.174.959.959 0 0 0-.864-.641h-.041a.958.958 0 0 0-.569.187c-3.677-9.388-13.83-9.6-14.289-9.6h-.022z"/>
        </g>
    </g>
</svg>
